<svg xmlns="http://www.w3.org/2000/svg" xmlns:xlink="http://www.w3.org/1999/xlink" width="500" zoomAndPan="magnify" viewBox="0 0 375 374.999991" height="500" preserveAspectRatio="xMidYMid meet" version="1.0"><defs><g/><clipPath id="63eea761b6"><path d="M 51 63.863281 L 324.429688 63.863281 L 324.429688 217 L 51 217 Z M 51 63.863281 " clip-rule="nonzero"/></clipPath><clipPath id="741c1bfb8c"><path d="M 52 203 L 324 203 L 324 337.613281 L 52 337.613281 Z M 52 203 " clip-rule="nonzero"/></clipPath></defs><g clip-path="url(#63eea761b6)"><path fill="#8fbd4f" d="M 184.320312 149.503906 C 175.265625 142.261719 170.089844 131.394531 170.089844 119.492188 C 170.089844 106.296875 176.816406 94.136719 187.683594 87.148438 C 198.550781 94.136719 205.28125 106.554688 205.28125 119.492188 C 205.28125 131.136719 200.105469 142.261719 191.050781 149.503906 L 187.683594 108.367188 Z M 141.113281 150.539062 C 159.222656 152.609375 173.453125 167.101562 175.265625 185.210938 C 166.984375 172.792969 150.945312 184.953125 133.089844 170.722656 C 125.070312 164.253906 119.894531 154.679688 118.859375 144.332031 C 132.574219 134.238281 150.945312 133.980469 164.914062 143.296875 L 165.433594 143.554688 C 178.113281 152.09375 186.132812 166.582031 186.390625 182.105469 C 186.648438 166.582031 194.671875 152.09375 207.351562 143.554688 L 207.867188 143.296875 C 221.839844 133.980469 240.46875 134.5 253.921875 144.332031 C 252.886719 154.679688 247.714844 164.253906 239.691406 170.722656 C 221.839844 184.953125 205.796875 173.050781 197.777344 185.210938 C 199.585938 167.101562 213.816406 152.609375 231.929688 150.539062 C 202.691406 153.386719 188.71875 175.378906 190.015625 216.261719 C 187.683594 216.261719 185.097656 216.003906 182.511719 215.484375 C 183.546875 175.121094 169.574219 153.644531 140.59375 150.539062 Z M 187.683594 63.601562 C 225.460938 63.601562 259.617188 78.867188 284.457031 103.707031 C 309.292969 128.546875 324.558594 162.703125 324.558594 200.476562 C 324.558594 205.136719 324.300781 209.535156 324.042969 213.933594 C 319.902344 214.191406 316.539062 214.191406 313.691406 214.191406 C 314.210938 209.792969 314.46875 205.136719 314.46875 200.476562 C 314.46875 165.546875 300.238281 133.980469 277.46875 110.953125 C 254.699219 88.183594 222.875 73.953125 187.945312 73.953125 C 153.015625 73.953125 121.1875 88.183594 98.417969 110.953125 C 75.648438 133.980469 61.417969 165.546875 61.417969 200.476562 C 61.417969 205.136719 61.675781 209.792969 62.195312 214.191406 C 59.347656 214.191406 55.984375 214.191406 51.84375 213.933594 C 51.328125 209.535156 51.328125 204.875 51.328125 200.476562 C 51.328125 162.703125 66.59375 128.546875 91.433594 103.707031 C 116.273438 79.128906 150.425781 63.601562 188.203125 63.601562 Z M 187.683594 63.601562 " fill-opacity="1" fill-rule="evenodd"/></g><g clip-path="url(#741c1bfb8c)"><path fill="#054d3b" d="M 92.726562 212.378906 C 103.59375 207.722656 114.460938 203.066406 127.914062 203.066406 C 139.558594 203.066406 150.425781 207.722656 161.292969 212.378906 C 171.382812 216.777344 181.214844 220.917969 190.789062 220.917969 C 200.363281 220.917969 210.453125 216.519531 220.546875 212.378906 C 231.671875 207.722656 242.539062 203.066406 254.183594 203.066406 C 265.308594 203.066406 275.917969 207.722656 286.523438 212.378906 C 303.601562 220.144531 308 221.4375 323.523438 220.917969 C 319.125 250.675781 305.15625 277.324219 284.972656 297.507812 C 260.132812 322.347656 225.980469 337.613281 188.203125 337.613281 C 150.425781 337.613281 116.273438 322.347656 91.433594 297.507812 C 71.25 277.324219 57.277344 250.675781 52.878906 220.917969 C 68.664062 221.695312 74.875 220.402344 93.246094 212.378906 Z M 181.734375 230.234375 C 180.699219 234.375 178.628906 237.476562 176.042969 239.546875 C 169.054688 246.535156 158.449219 248.863281 149.132812 245.5 C 143.179688 243.429688 138.007812 243.6875 132.832031 246.015625 C 124.8125 249.378906 114.980469 262.058594 106.179688 252.226562 C 105.921875 251.710938 105.144531 251.710938 104.628906 251.96875 C 104.113281 252.226562 103.851562 253.003906 104.113281 253.519531 C 111.355469 261.023438 118.601562 262.058594 126.105469 256.109375 C 132.574219 250.15625 138.265625 248.34375 142.921875 250.15625 C 144.214844 250.675781 147.0625 251.96875 147.0625 253.777344 C 147.0625 254.296875 142.664062 258.695312 141.628906 259.988281 C 137.230469 266.457031 138.007812 272.148438 127.65625 272.925781 C 127.140625 272.925781 126.878906 273.445312 126.878906 273.960938 C 126.878906 274.480469 127.398438 274.738281 127.914062 274.738281 C 145.511719 277.324219 142.921875 256.882812 155.601562 255.332031 C 162.585938 254.296875 164.914062 256.625 172.9375 252.484375 C 179.664062 249.898438 182.25 250.15625 181.214844 253.519531 C 179.921875 257.917969 177.59375 263.09375 174.230469 269.046875 C 169.574219 277.84375 169.054688 285.605469 172.417969 292.074219 C 177.59375 302.164062 175.78125 310.183594 166.726562 315.617188 C 166.210938 316.136719 166.210938 316.914062 166.46875 317.429688 C 166.984375 317.949219 167.761719 318.207031 168.28125 317.949219 C 179.921875 311.996094 183.546875 303.714844 178.886719 292.847656 C 174.488281 283.277344 175.265625 276.03125 181.214844 271.113281 C 184.0625 268.785156 186.132812 276.03125 187.683594 277.84375 C 192.34375 284.050781 199.585938 285.605469 196.742188 296.988281 C 196.484375 297.507812 196.742188 298.023438 197 298.28125 C 197.257812 298.542969 197.777344 298.800781 198.292969 298.800781 C 198.8125 298.800781 199.070312 298.28125 199.328125 297.765625 C 201.398438 292.074219 201.140625 287.15625 198.8125 283.535156 C 193.636719 274.738281 184.0625 269.5625 188.980469 257.917969 C 190.015625 255.847656 191.824219 255.332031 194.414062 256.367188 C 201.398438 258.179688 207.089844 259.472656 211.75 259.988281 C 222.617188 261.023438 228.566406 253.777344 235.554688 259.210938 C 238.398438 261.542969 240.46875 264.386719 241.761719 268.269531 C 245.386719 278.878906 240.46875 282.757812 254.699219 289.226562 C 255.21875 289.484375 255.992188 289.226562 256.511719 288.449219 C 256.769531 287.933594 256.769531 287.15625 256.253906 286.640625 C 241.503906 279.136719 254.957031 269.304688 243.574219 257.917969 C 243.054688 257.402344 243.054688 256.367188 243.574219 255.589844 C 244.089844 254.8125 245.125 254.8125 245.902344 255.332031 C 258.320312 262.835938 268.929688 262.835938 277.988281 255.332031 C 278.761719 254.554688 278.761719 253.519531 278.246094 252.746094 C 277.726562 251.96875 276.691406 251.710938 275.917969 251.96875 C 263.238281 258.953125 257.289062 253.777344 246.679688 248.605469 C 240.726562 245.757812 234.519531 245.757812 227.53125 249.121094 C 214.59375 254.039062 204.246094 251.191406 196.222656 239.808594 C 194.414062 237.21875 193.117188 234.113281 192.082031 230.75 C 188.460938 230.75 184.839844 230.234375 181.476562 229.714844 Z M 181.734375 230.234375 " fill-opacity="1" fill-rule="evenodd"/></g><g fill="#054d3b" fill-opacity="1"><g transform="translate(42.868413, 216.411314)"><g><path d="M -33.5625 -2.140625 L -33.6875 -14.375 C -33.71875 -17.789062 -32.859375 -20.5625 -31.109375 -22.6875 C -29.359375 -24.820312 -26.800781 -25.898438 -23.4375 -25.921875 C -20.082031 -25.953125 -17.4375 -24.90625 -15.5 -22.78125 C -13.570312 -20.664062 -12.597656 -17.925781 -12.578125 -14.5625 L -12.53125 -9.96875 L -0.09375 -10.078125 L -0.015625 -2.4375 Z M -18.640625 -9.90625 L -18.65625 -12.0625 C -18.675781 -13.769531 -19.035156 -15.171875 -19.734375 -16.265625 C -20.429688 -17.359375 -21.566406 -17.898438 -23.140625 -17.890625 C -24.742188 -17.867188 -25.882812 -17.304688 -26.5625 -16.203125 C -27.238281 -15.097656 -27.566406 -13.691406 -27.546875 -11.984375 L -27.53125 -9.828125 Z M -18.640625 -9.90625 "/></g></g></g><g fill="#054d3b" fill-opacity="1"><g transform="translate(46.537833, 165.163788)"><g><path d="M -9.046875 -14.171875 L 3.546875 -9.4375 L 0.859375 -2.28125 L -30.546875 -14.078125 L -27.859375 -21.234375 L -15.328125 -16.53125 L -11.53125 -26.640625 L -24.0625 -31.34375 L -21.359375 -38.515625 L 10.046875 -26.71875 L 7.34375 -19.546875 L -5.25 -24.28125 Z M -9.046875 -14.171875 "/></g></g></g><g fill="#054d3b" fill-opacity="1"><g transform="translate(70.249267, 115.385843)"><g><path d="M -25.640625 -21.640625 L -19.46875 -28.453125 L -6.828125 -26.421875 L -10.0625 -38.796875 L -3.890625 -45.59375 L 1.484375 -24.015625 L 12.625 -13.90625 L 7.484375 -8.25 L -3.65625 -18.359375 Z M -25.640625 -21.640625 "/></g></g></g><g fill="#054d3b" fill-opacity="1"><g transform="translate(110.164329, 78.647157)"><g><path d="M -12.03125 -23.984375 L -15.109375 -29.953125 L 5.828125 -40.78125 L 8.90625 -34.8125 L 1.828125 -31.15625 L 14.15625 -7.328125 L 7.375 -3.8125 L -4.953125 -27.640625 Z M -12.03125 -23.984375 "/></g></g></g><g fill="#054d3b" fill-opacity="1"><g transform="translate(154.797925, 59.503276)"><g><path d="M -0.78125 -16.796875 C -1.28125 -21.617188 -0.0625 -25.867188 2.875 -29.546875 C 5.820312 -33.234375 9.613281 -35.316406 14.25 -35.796875 C 18.914062 -36.273438 23.050781 -35.019531 26.65625 -32.03125 C 30.257812 -29.039062 32.3125 -25.117188 32.8125 -20.265625 C 33.3125 -15.390625 32.128906 -11.117188 29.265625 -7.453125 C 26.410156 -3.796875 22.59375 -1.71875 17.8125 -1.21875 C 12.925781 -0.71875 8.734375 -1.953125 5.234375 -4.921875 C 1.734375 -7.898438 -0.269531 -11.859375 -0.78125 -16.796875 Z M 7.421875 -17.640625 C 7.597656 -15.878906 8.03125 -14.304688 8.71875 -12.921875 C 9.40625 -11.546875 10.472656 -10.429688 11.921875 -9.578125 C 13.367188 -8.722656 15.078125 -8.394531 17.046875 -8.59375 C 19.878906 -8.882812 21.914062 -10.070312 23.15625 -12.15625 C 24.40625 -14.25 24.890625 -16.671875 24.609375 -19.421875 C 24.328125 -22.140625 23.347656 -24.398438 21.671875 -26.203125 C 20.003906 -28.015625 17.78125 -28.773438 15 -28.484375 C 12.25 -28.203125 10.226562 -27.003906 8.9375 -24.890625 C 7.644531 -22.773438 7.140625 -20.359375 7.421875 -17.640625 Z M 7.421875 -17.640625 "/></g></g></g><g fill="#054d3b" fill-opacity="1"><g transform="translate(214.875636, 59.433618)"><g/></g></g><g fill="#054d3b" fill-opacity="1"><g transform="translate(249.589293, 70.81318)"><g><path d="M 24.609375 -24.921875 L 8.90625 4.71875 L 2.15625 1.140625 L 17.859375 -28.5 Z M 24.609375 -24.921875 "/></g></g></g><g fill="#054d3b" fill-opacity="1"><g transform="translate(281.41859, 90.363005)"><g><path d="M 22.078125 -6.890625 L 6.890625 7.34375 L 1.671875 1.78125 L 26.140625 -21.171875 L 31.359375 -15.609375 L 25.296875 8.375 L 25.359375 8.4375 L 40.546875 -5.8125 L 45.765625 -0.234375 L 21.296875 22.71875 L 16.078125 17.140625 L 22.140625 -6.8125 Z M 22.078125 -6.890625 "/></g></g></g><g fill="#054d3b" fill-opacity="1"><g transform="translate(316.844104, 136.004554)"><g><path d="M 39.3125 7.46875 L 33.109375 10.015625 L 28.65625 -0.859375 L 22.484375 1.671875 L 26.59375 11.71875 L 20.390625 14.265625 L 16.28125 4.21875 L 3.828125 9.328125 L 0.921875 2.25 L 31.953125 -10.484375 Z M 39.3125 7.46875 "/></g></g></g><g fill="#054d3b" fill-opacity="1"><g transform="translate(331.685426, 181.054774)"><g><path d="M 16.8125 0.625 C 21.65625 0.539062 25.789062 2.117188 29.21875 5.359375 C 32.644531 8.609375 34.398438 12.5625 34.484375 17.21875 C 34.566406 21.90625 32.960938 25.914062 29.671875 29.25 C 26.390625 32.59375 22.3125 34.3125 17.4375 34.40625 C 12.53125 34.5 8.375 32.960938 4.96875 29.796875 C 1.5625 26.640625 -0.1875 22.660156 -0.28125 17.859375 C -0.375 12.953125 1.207031 8.875 4.46875 5.625 C 7.726562 2.382812 11.84375 0.71875 16.8125 0.625 Z M 16.96875 8.875 C 15.195312 8.90625 13.59375 9.203125 12.15625 9.765625 C 10.71875 10.335938 9.507812 11.3125 8.53125 12.6875 C 7.5625 14.0625 7.09375 15.738281 7.125 17.71875 C 7.175781 20.5625 8.1875 22.691406 10.15625 24.109375 C 12.132812 25.523438 14.507812 26.207031 17.28125 26.15625 C 20.007812 26.101562 22.34375 25.316406 24.28125 23.796875 C 26.226562 22.285156 27.175781 20.132812 27.125 17.34375 C 27.070312 14.582031 26.046875 12.46875 24.046875 11 C 22.054688 9.53125 19.695312 8.820312 16.96875 8.875 Z M 16.96875 8.875 "/></g></g></g><g fill="#8fbd4f" fill-opacity="1"><g transform="translate(26.781456, 237.879091)"><g><path d="M 19.222656 -0.3125 L 15.636719 0.601562 L 16.101562 2.433594 L 13.683594 3.050781 L 13.21875 1.21875 L 5.988281 3.058594 C 5.535156 3.175781 4.949219 3.324219 4.5 3.550781 C 4.046875 3.78125 3.703125 4.09375 3.8125 4.519531 C 3.867188 4.730469 3.960938 4.992188 4.035156 5.171875 C 4.089844 5.269531 4.117188 5.375 4.167969 5.476562 L 1.539062 6.144531 C 1.476562 6.019531 1.390625 5.902344 1.328125 5.773438 C 1.210938 5.523438 1.09375 5.183594 0.984375 4.757812 C 0.585938 3.191406 1.195312 2.242188 2.109375 1.613281 C 3.023438 0.984375 4.242188 0.644531 5.089844 0.429688 L 12.53125 -1.46875 L 12.1875 -2.824219 L 14.605469 -3.4375 L 14.953125 -2.082031 L 18.539062 -2.996094 Z M 19.222656 -0.3125 "/></g></g></g><g fill="#8fbd4f" fill-opacity="1"><g transform="translate(30.258374, 250.613726)"><g><path d="M 1.277344 3.652344 L 0.363281 1.035156 L 19.390625 -5.617188 L 20.304688 -3 L 14.246094 -0.882812 C 14.292969 -0.839844 14.429688 -0.773438 14.640625 -0.671875 C 15.027344 -0.488281 15.550781 -0.234375 15.972656 0.140625 C 16.183594 0.328125 16.304688 0.519531 16.386719 0.75 C 16.632812 1.449219 16.390625 2.085938 15.980469 2.578125 C 15.546875 3.078125 14.902344 3.480469 14.304688 3.6875 L 2.707031 7.742188 L 1.792969 5.125 L 13.003906 1.207031 C 13.546875 1.015625 13.515625 0.679688 13.40625 0.367188 C 13.308594 0.0859375 13.097656 -0.015625 12.851562 -0.132812 C 12.722656 -0.175781 12.59375 -0.21875 12.433594 -0.25 Z M 1.277344 3.652344 "/></g></g></g><g fill="#8fbd4f" fill-opacity="1"><g transform="translate(35.760699, 265.398931)"><g><path d="M 8.234375 5.066406 L 6.664062 5.785156 C 5.308594 6.316406 4.203125 6.339844 3.070312 5.773438 C 2.488281 5.496094 2.027344 4.953125 1.652344 4.128906 C 0.910156 2.511719 1.429688 1.277344 2.144531 0.464844 C 2.566406 0 3.09375 -0.421875 3.757812 -0.757812 L 10.613281 -3.898438 C 11.96875 -4.429688 13.136719 -4.449219 14.296875 -3.894531 C 14.863281 -3.644531 15.324219 -3.101562 15.699219 -2.277344 C 16.445312 -0.65625 15.921875 0.578125 15.234375 1.375 C 14.8125 1.839844 14.308594 2.253906 13.671875 2.574219 L 9.707031 4.390625 L 7.796875 0.226562 L 4.832031 1.585938 C 4.320312 1.851562 4.011719 2.171875 3.839844 2.523438 C 3.773438 2.707031 3.78125 2.914062 3.882812 3.136719 C 4.097656 3.613281 4.5 3.699219 4.921875 3.628906 C 5.15625 3.613281 5.390625 3.535156 5.664062 3.40625 L 7.160156 2.722656 Z M 9.769531 -0.675781 L 10.601562 1.144531 L 12.523438 0.265625 C 13.046875 0.0273438 13.375 -0.246094 13.558594 -0.632812 C 13.625 -0.8125 13.609375 -1.046875 13.507812 -1.273438 C 13.289062 -1.746094 12.875 -1.796875 12.441406 -1.75 C 12.210938 -1.734375 11.972656 -1.65625 11.6875 -1.554688 Z M 9.769531 -0.675781 "/></g></g></g><g fill="#8fbd4f" fill-opacity="1"><g transform="translate(42.411795, 279.100329)"><g/></g></g><g fill="#8fbd4f" fill-opacity="1"><g transform="translate(47.716686, 288.413339)"><g><path d="M 4.105469 6.0625 L 9.433594 1.164062 L 10.0625 0.574219 L 10 0.480469 L 9.21875 0.84375 L 2.691406 3.972656 L 1.398438 2.066406 L 12.574219 -8.1875 L 13.992188 -6.097656 L 7.988281 -0.972656 L 7.34375 -0.402344 L 7.4375 -0.265625 L 8.21875 -0.628906 L 15.359375 -4.074219 L 16.28125 -2.714844 L 10.433594 2.640625 L 9.804688 3.230469 L 9.898438 3.367188 L 10.664062 2.980469 L 17.652344 -0.691406 L 19.066406 1.398438 L 5.398438 7.972656 Z M 4.105469 6.0625 "/></g></g></g><g fill="#8fbd4f" fill-opacity="1"><g transform="translate(58.565873, 303.682864)"><g><path d="M 12.164062 -3.292969 C 12.355469 -3.453125 12.648438 -3.699219 12.804688 -3.9375 C 12.945312 -4.199219 12.949219 -4.492188 12.722656 -4.765625 C 12.421875 -5.121094 12.027344 -5.039062 11.636719 -4.820312 C 11.449219 -4.699219 11.242188 -4.5625 11.054688 -4.402344 C 10.867188 -4.246094 10.675781 -4.085938 10.507812 -3.945312 L 8.726562 -6.066406 L 9.210938 -6.472656 C 10.050781 -7.179688 11.074219 -7.496094 12.0625 -7.46875 C 13.054688 -7.441406 13.988281 -7.007812 14.675781 -6.1875 C 15.257812 -5.496094 15.515625 -4.636719 15.457031 -3.765625 C 15.398438 -2.894531 14.996094 -2.054688 14.238281 -1.417969 L 7.179688 4.503906 C 6.148438 5.367188 5.738281 5.816406 5.304688 6.324219 L 3.558594 4.246094 C 3.632812 3.863281 4.179688 3.402344 4.328125 3.28125 L 4.203125 3.132812 C 3.925781 3.1875 3.492188 3.226562 3.015625 3.125 C 2.539062 3.027344 2.035156 2.769531 1.683594 2.347656 C 1.453125 2.074219 1.1875 1.542969 1.328125 0.855469 C 1.425781 0.164062 1.894531 -0.730469 3.09375 -1.734375 C 4.375 -2.808594 5.617188 -3.207031 6.667969 -3.230469 C 7.722656 -3.253906 8.652344 -2.960938 9.363281 -2.664062 C 10.078125 -2.367188 10.601562 -2.125 10.902344 -2.238281 Z M 8.949219 -0.597656 C 7.644531 -1.257812 6.246094 -0.835938 5.152344 0.0820312 C 5.003906 0.207031 4.769531 0.4375 4.609375 0.714844 C 4.429688 1.011719 4.363281 1.316406 4.574219 1.570312 C 4.980469 2.050781 5.609375 2.203125 6.007812 1.871094 Z M 8.949219 -0.597656 "/></g></g></g><g fill="#8fbd4f" fill-opacity="1"><g transform="translate(68.678051, 315.261439)"><g><path d="M -1.699219 2.332031 C -1.699219 2.371094 -1.660156 2.410156 -1.601562 2.46875 C -1.523438 2.585938 -1.074219 3.105469 -0.53125 3.183594 C 0.0117188 3.257812 0.554688 3.140625 1.078125 2.847656 C 1.328125 2.710938 1.542969 2.535156 1.734375 2.339844 L 10.800781 -10.417969 L 12.730469 -8.503906 L 7.015625 -1.191406 L 6.515625 -0.605469 L 6.59375 -0.527344 L 7.171875 -1.035156 L 14.441406 -6.804688 L 16.371094 -4.890625 L 3.121094 4.683594 C 2.269531 5.34375 1.242188 5.792969 0.214844 5.894531 C -0.8125 5.996094 -1.820312 5.765625 -2.601562 4.992188 C -2.65625 4.9375 -2.734375 4.859375 -2.832031 4.761719 C -3.007812 4.589844 -3.222656 4.335938 -3.4375 4.085938 Z M -1.699219 2.332031 "/></g></g></g><g fill="#8fbd4f" fill-opacity="1"><g transform="translate(79.475748, 325.519038)"><g/></g></g><g fill="#8fbd4f" fill-opacity="1"><g transform="translate(87.675662, 332.297136)"><g><path d="M 9.683594 -11.511719 L 11.929688 -9.886719 L 11.347656 -9.085938 C 11.984375 -9.167969 12.511719 -9.195312 13.101562 -9.074219 C 13.378906 -9.039062 13.632812 -8.921875 13.835938 -8.777344 C 14.457031 -8.328125 14.621094 -7.667969 14.589844 -7.015625 C 14.519531 -6.355469 14.21875 -5.660156 13.847656 -5.148438 L 8.234375 2.609375 C 7.867188 3.117188 7.296875 3.621094 6.710938 3.875 C 6.082031 4.132812 5.402344 4.179688 4.78125 3.730469 C 4.359375 3.425781 4.09375 2.859375 3.9375 2.375 C 3.847656 2.074219 3.785156 1.789062 3.710938 1.46875 L 0.109375 6.445312 L -2.132812 4.820312 Z M 5.0625 -0.398438 C 4.804688 -0.0429688 4.863281 0.574219 5.199219 0.816406 C 5.53125 1.058594 6.023438 0.9375 6.328125 0.515625 L 11.265625 -6.304688 C 11.570312 -6.726562 11.527344 -7.230469 11.195312 -7.472656 C 10.863281 -7.714844 10.304688 -7.644531 10 -7.222656 Z M 5.0625 -0.398438 "/></g></g></g><g fill="#8fbd4f" fill-opacity="1"><g transform="translate(100.527118, 341.167947)"><g><path d="M 11.394531 -16.667969 L 13.761719 -15.230469 L 3.304688 2.007812 L 0.9375 0.570312 Z M 11.394531 -16.667969 "/></g></g></g><g fill="#8fbd4f" fill-opacity="1"><g transform="translate(110.355374, 346.922279)"><g><path d="M 9.863281 -7.847656 C 9.972656 -8.066406 10.144531 -8.410156 10.195312 -8.691406 C 10.21875 -8.984375 10.109375 -9.257812 9.792969 -9.417969 C 9.375 -9.625 9.042969 -9.394531 8.773438 -9.039062 C 8.648438 -8.855469 8.515625 -8.644531 8.402344 -8.425781 C 8.292969 -8.203125 8.183594 -7.984375 8.082031 -7.789062 L 5.609375 -9.03125 L 5.890625 -9.59375 C 6.382812 -10.574219 7.195312 -11.273438 8.113281 -11.640625 C 9.035156 -12.003906 10.066406 -11.980469 11.023438 -11.5 C 11.832031 -11.09375 12.40625 -10.40625 12.699219 -9.582031 C 12.992188 -8.761719 12.953125 -7.828125 12.511719 -6.945312 L 8.375 1.289062 C 7.773438 2.492188 7.574219 3.066406 7.378906 3.703125 L 4.953125 2.484375 C 4.867188 2.105469 5.1875 1.46875 5.273438 1.296875 L 5.101562 1.210938 C 4.867188 1.371094 4.488281 1.578125 4.007812 1.675781 C 3.53125 1.773438 2.964844 1.734375 2.476562 1.488281 C 2.15625 1.328125 1.703125 0.949219 1.558594 0.261719 C 1.375 -0.414062 1.449219 -1.421875 2.152344 -2.816406 C 2.902344 -4.3125 3.882812 -5.167969 4.84375 -5.609375 C 5.800781 -6.050781 6.769531 -6.144531 7.542969 -6.15625 C 8.3125 -6.167969 8.890625 -6.15625 9.125 -6.375 Z M 7.980469 -4.097656 C 6.519531 -4.183594 5.402344 -3.242188 4.761719 -1.96875 C 4.675781 -1.796875 4.554688 -1.488281 4.515625 -1.171875 C 4.464844 -0.828125 4.527344 -0.519531 4.820312 -0.371094 C 5.386719 -0.0898438 6.023438 -0.199219 6.257812 -0.664062 Z M 7.980469 -4.097656 "/></g></g></g><g fill="#8fbd4f" fill-opacity="1"><g transform="translate(124.243048, 353.562512)"><g><path d="M 3.601562 1.40625 L 1.023438 0.398438 L 6.472656 -13.578125 L 9.054688 -12.574219 L 8.59375 -11.398438 C 8.65625 -11.402344 8.796875 -11.464844 9.011719 -11.558594 C 9.402344 -11.730469 9.933594 -11.964844 10.496094 -12.039062 C 10.773438 -12.078125 11 -12.050781 11.226562 -11.960938 C 11.917969 -11.691406 12.246094 -11.09375 12.351562 -10.460938 C 12.449219 -9.804688 12.332031 -9.054688 12.105469 -8.46875 L 7.640625 2.980469 L 5.058594 1.972656 L 9.375 -9.09375 C 9.582031 -9.628906 9.304688 -9.824219 9 -9.945312 C 8.71875 -10.054688 8.503906 -9.960938 8.257812 -9.851562 C 8.140625 -9.777344 8.023438 -9.707031 7.898438 -9.609375 Z M 3.601562 1.40625 "/></g></g></g><g fill="#8fbd4f" fill-opacity="1"><g transform="translate(139.007026, 358.958502)"><g><path d="M 9.523438 -16.703125 L 8.480469 -13.148438 L 10.296875 -12.617188 L 9.597656 -10.222656 L 7.78125 -10.753906 L 5.683594 -3.59375 C 5.550781 -3.144531 5.382812 -2.566406 5.347656 -2.0625 C 5.316406 -1.558594 5.410156 -1.101562 5.832031 -0.976562 C 6.042969 -0.917969 6.3125 -0.867188 6.503906 -0.839844 C 6.617188 -0.832031 6.722656 -0.800781 6.835938 -0.796875 L 6.074219 1.808594 C 5.933594 1.796875 5.785156 1.808594 5.648438 1.796875 C 5.367188 1.773438 5.019531 1.699219 4.597656 1.574219 C 3.042969 1.121094 2.539062 0.113281 2.464844 -0.992188 C 2.386719 -2.101562 2.714844 -3.320312 2.960938 -4.160156 L 5.121094 -11.53125 L 3.78125 -11.925781 L 4.480469 -14.320312 L 5.824219 -13.925781 L 6.863281 -17.480469 Z M 9.523438 -16.703125 "/></g></g></g><g fill="#8fbd4f" fill-opacity="1"><g transform="translate(151.717561, 362.437653)"><g><path d="M 7.414062 -9.882812 C 7.484375 -10.234375 7.570312 -10.664062 7.535156 -11.035156 C 7.464844 -11.382812 7.304688 -11.695312 6.875 -11.785156 C 6.527344 -11.855469 6.257812 -11.628906 6.082031 -11.328125 C 5.882812 -11.035156 5.765625 -10.582031 5.691406 -10.234375 C 5.601562 -9.777344 5.742188 -9.242188 6.003906 -8.742188 C 6.242188 -8.246094 6.582031 -7.730469 6.929688 -7.238281 C 7.378906 -6.558594 7.921875 -5.777344 8.230469 -4.957031 C 8.535156 -4.113281 8.714844 -3.207031 8.515625 -2.242188 C 8.324219 -1.300781 7.910156 -0.351562 7.21875 0.292969 C 6.496094 0.957031 5.519531 1.347656 4.230469 1.085938 C 2.589844 0.75 1.777344 -0.199219 1.425781 -1.222656 C 1.074219 -2.246094 1.195312 -3.394531 1.351562 -4.175781 L 3.878906 -3.660156 C 3.796875 -3.257812 3.710938 -2.6875 3.808594 -2.21875 C 3.90625 -1.722656 4.125 -1.289062 4.6875 -1.171875 C 5.46875 -1.015625 5.816406 -1.894531 5.992188 -2.753906 C 6.171875 -3.640625 5.492188 -4.703125 4.828125 -5.707031 C 4.308594 -6.457031 3.804688 -7.148438 3.46875 -7.972656 C 3.132812 -8.796875 2.949219 -9.671875 3.167969 -10.746094 C 3.339844 -11.609375 3.707031 -12.570312 4.375 -13.246094 C 5.039062 -13.894531 5.984375 -14.289062 7.28125 -14.050781 C 8.871094 -13.757812 9.640625 -12.984375 9.9375 -12.113281 C 10.234375 -11.238281 10.109375 -10.203125 9.941406 -9.371094 Z M 7.414062 -9.882812 "/></g></g></g><g fill="#8fbd4f" fill-opacity="1"><g transform="translate(166.317925, 365.077088)"><g/></g></g><g fill="#8fbd4f" fill-opacity="1"><g transform="translate(176.872906, 366.232005)"><g><path d="M 5.824219 -10.894531 C 5.839844 -11.253906 5.859375 -11.691406 5.769531 -12.050781 C 5.648438 -12.386719 5.441406 -12.671875 5.003906 -12.691406 C 4.648438 -12.710938 4.414062 -12.445312 4.289062 -12.125 C 4.136719 -11.800781 4.085938 -11.335938 4.070312 -10.980469 C 4.046875 -10.515625 4.269531 -10.011719 4.605469 -9.554688 C 4.914062 -9.101562 5.328125 -8.640625 5.75 -8.207031 C 6.296875 -7.605469 6.949219 -6.914062 7.378906 -6.152344 C 7.808594 -5.363281 8.125 -4.496094 8.078125 -3.511719 C 8.03125 -2.550781 7.761719 -1.550781 7.179688 -0.808594 C 6.566406 -0.0429688 5.660156 0.492188 4.34375 0.429688 C 2.675781 0.347656 1.726562 -0.464844 1.222656 -1.425781 C 0.71875 -2.382812 0.664062 -3.539062 0.703125 -4.332031 L 3.277344 -4.207031 C 3.257812 -3.796875 3.257812 -3.222656 3.429688 -2.773438 C 3.597656 -2.296875 3.878906 -1.902344 4.457031 -1.871094 C 5.25 -1.835938 5.460938 -2.757812 5.5 -3.636719 C 5.546875 -4.539062 4.710938 -5.484375 3.902344 -6.375 C 3.277344 -7.035156 2.671875 -7.640625 2.214844 -8.40625 C 1.757812 -9.167969 1.441406 -10.007812 1.496094 -11.105469 C 1.535156 -11.980469 1.75 -12.988281 2.308594 -13.757812 C 2.867188 -14.5 3.742188 -15.03125 5.058594 -14.996094 C 6.675781 -14.945312 7.550781 -14.300781 7.980469 -13.484375 C 8.40625 -12.667969 8.4375 -11.621094 8.398438 -10.773438 Z M 5.824219 -10.894531 "/></g></g></g><g fill="#8fbd4f" fill-opacity="1"><g transform="translate(191.83828, 366.667737)"><g><path d="M 3.863281 -0.171875 L 1.097656 -0.046875 L 0.203125 -20.1875 L 2.972656 -20.3125 L 3.253906 -13.898438 C 3.308594 -13.929688 3.414062 -14.042969 3.570312 -14.214844 C 3.859375 -14.53125 4.25 -14.957031 4.734375 -15.253906 C 4.972656 -15.402344 5.191406 -15.46875 5.4375 -15.476562 C 6.175781 -15.511719 6.714844 -15.09375 7.070312 -14.5625 C 7.425781 -14 7.621094 -13.269531 7.648438 -12.636719 L 8.191406 -0.363281 L 5.425781 -0.242188 L 4.898438 -12.105469 C 4.875 -12.679688 4.542969 -12.746094 4.214844 -12.734375 C 3.910156 -12.71875 3.753906 -12.546875 3.570312 -12.347656 C 3.492188 -12.234375 3.417969 -12.121094 3.339844 -11.980469 Z M 3.863281 -0.171875 "/></g></g></g><g fill="#8fbd4f" fill-opacity="1"><g transform="translate(207.581291, 365.655528)"><g><path d="M 7.378906 -4.703125 C 7.496094 -3.253906 7.199219 -2.1875 6.359375 -1.269531 C 5.925781 -0.792969 5.273438 -0.507812 4.378906 -0.382812 C 2.609375 -0.140625 1.605469 -0.996094 1.035156 -1.914062 C 0.710938 -2.453125 0.460938 -3.082031 0.332031 -3.8125 L -0.703125 -11.28125 C -0.820312 -12.734375 -0.535156 -13.855469 0.304688 -14.800781 C 0.710938 -15.273438 1.363281 -15.554688 2.257812 -15.679688 C 4.023438 -15.925781 5.058594 -15.070312 5.625 -14.179688 C 5.945312 -13.644531 6.195312 -13.042969 6.320312 -12.339844 Z M 3.75 -11.898438 C 3.699219 -12.472656 3.535156 -12.867188 3.21875 -13.15625 C 3.0625 -13.273438 2.835938 -13.324219 2.589844 -13.289062 C 2.074219 -13.21875 1.90625 -12.835938 1.851562 -12.414062 C 1.800781 -12.183594 1.808594 -11.933594 1.875 -11.640625 L 2.910156 -4.167969 C 2.964844 -3.59375 3.15625 -3.207031 3.441406 -2.941406 C 3.597656 -2.824219 3.796875 -2.769531 4.042969 -2.800781 C 4.558594 -2.875 4.757812 -3.234375 4.808594 -3.65625 C 4.863281 -3.886719 4.855469 -4.132812 4.785156 -4.429688 Z M 3.75 -11.898438 "/></g></g></g><g fill="#8fbd4f" fill-opacity="1"><g transform="translate(222.730418, 363.259779)"><g><path d="M 1.796875 -15.835938 L 4.496094 -16.46875 L 7.929688 -1.863281 L 5.234375 -1.230469 L 4.945312 -2.457031 C 4.898438 -2.417969 4.816406 -2.289062 4.714844 -2.121094 C 4.46875 -1.726562 4.183594 -1.265625 3.765625 -0.886719 C 3.554688 -0.695312 3.335938 -0.558594 3.09375 -0.503906 C 2.375 -0.332031 1.765625 -0.640625 1.3125 -1.125 C 0.867188 -1.585938 0.539062 -2.269531 0.394531 -2.882812 L -2.417969 -14.84375 L 0.277344 -15.476562 L 2.996094 -3.917969 C 3.128906 -3.355469 3.464844 -3.351562 3.785156 -3.425781 C 4.082031 -3.496094 4.203125 -3.691406 4.347656 -3.925781 C 4.40625 -4.023438 4.457031 -4.175781 4.503906 -4.328125 Z M 1.796875 -15.835938 "/></g></g></g><g fill="#8fbd4f" fill-opacity="1"><g transform="translate(237.903235, 359.33437)"><g><path d="M -5.148438 -19.523438 L -2.511719 -20.371094 L 3.679688 -1.1875 L 1.042969 -0.335938 Z M -5.148438 -19.523438 "/></g></g></g><g fill="#8fbd4f" fill-opacity="1"><g transform="translate(248.694663, 355.666624)"><g><path d="M 7.472656 -3.101562 L 4.914062 -2.039062 L 4.535156 -2.949219 C 4.273438 -2.367188 4.019531 -1.90625 3.632812 -1.476562 C 3.433594 -1.246094 3.199219 -1.089844 2.972656 -0.996094 C 2.261719 -0.703125 1.613281 -0.90625 1.089844 -1.3125 C 0.550781 -1.683594 0.113281 -2.304688 -0.128906 -2.886719 L -3.796875 -11.726562 C -4.039062 -12.3125 -4.171875 -13.058594 -4.0625 -13.726562 C -3.96875 -14.359375 -3.65625 -14.964844 -2.945312 -15.257812 C -2.464844 -15.457031 -1.839844 -15.390625 -1.347656 -15.269531 C -1.042969 -15.1875 -0.769531 -15.09375 -0.457031 -14.984375 L -2.808594 -20.660156 L -0.25 -21.722656 Z M 0.425781 -12.855469 C 0.257812 -13.261719 -0.300781 -13.535156 -0.679688 -13.378906 C -1.058594 -13.21875 -1.21875 -12.738281 -1.015625 -12.257812 L 2.210938 -4.480469 C 2.410156 -4 2.859375 -3.769531 3.242188 -3.925781 C 3.621094 -4.085938 3.851562 -4.597656 3.652344 -5.078125 Z M 0.425781 -12.855469 "/></g></g></g><g fill="#8fbd4f" fill-opacity="1"><g transform="translate(262.963139, 349.369735)"><g/></g></g><g fill="#8fbd4f" fill-opacity="1"><g transform="translate(272.366313, 344.39438)"><g><path d="M -9.613281 -17.753906 L -7.253906 -19.203125 L -4.039062 -13.96875 C -3.871094 -14.585938 -3.691406 -15.082031 -3.355469 -15.578125 C -3.214844 -15.824219 -3.011719 -16.015625 -2.800781 -16.144531 C -2.144531 -16.546875 -1.472656 -16.445312 -0.882812 -16.164062 C -0.300781 -15.84375 0.226562 -15.300781 0.558594 -14.761719 L 5.566406 -6.605469 C 5.898438 -6.066406 6.144531 -5.351562 6.152344 -4.710938 C 6.148438 -4.035156 5.933594 -3.386719 5.28125 -2.984375 C 4.835938 -2.710938 4.210938 -2.683594 3.703125 -2.722656 C 3.390625 -2.757812 3.105469 -2.808594 2.777344 -2.863281 L 3.296875 -2.023438 L 0.933594 -0.574219 Z M 1.574219 -4.828125 C 1.847656 -4.382812 2.398438 -4.273438 2.746094 -4.488281 C 3.097656 -4.703125 3.179688 -5.203125 2.90625 -5.648438 L -1.5 -12.820312 C -1.773438 -13.265625 -2.253906 -13.421875 -2.605469 -13.207031 C -2.957031 -12.992188 -3.0625 -12.378906 -2.832031 -12.003906 Z M 1.574219 -4.828125 "/></g></g></g><g fill="#8fbd4f" fill-opacity="1"><g transform="translate(285.596202, 335.904639)"><g><path d="M 3.199219 -9.125 L 4.238281 -7.742188 C 5.042969 -6.53125 5.300781 -5.457031 4.988281 -4.226562 C 4.84375 -3.601562 4.410156 -3.035156 3.683594 -2.492188 C 2.257812 -1.421875 0.941406 -1.667969 0 -2.195312 C -0.542969 -2.507812 -1.070312 -2.933594 -1.539062 -3.511719 L -6.066406 -9.542969 C -6.871094 -10.753906 -7.140625 -11.890625 -6.847656 -13.140625 C -6.722656 -13.75 -6.289062 -14.3125 -5.5625 -14.859375 C -4.136719 -15.929688 -2.820312 -15.683594 -1.894531 -15.175781 C -1.351562 -14.863281 -0.839844 -14.460938 -0.390625 -13.90625 L 2.226562 -10.417969 L -1.433594 -7.667969 L 0.523438 -5.058594 C 0.890625 -4.613281 1.269531 -4.382812 1.648438 -4.289062 C 1.839844 -4.261719 2.042969 -4.3125 2.242188 -4.460938 C 2.660156 -4.773438 2.65625 -5.183594 2.5 -5.578125 C 2.433594 -5.804688 2.304688 -6.019531 2.125 -6.261719 L 1.136719 -7.574219 Z M -2.734375 -9.402344 L -1.136719 -10.601562 L -2.402344 -12.292969 C -2.75 -12.753906 -3.082031 -13.015625 -3.5 -13.113281 C -3.691406 -13.140625 -3.917969 -13.074219 -4.113281 -12.925781 C -4.53125 -12.613281 -4.492188 -12.199219 -4.355469 -11.785156 C -4.289062 -11.5625 -4.164062 -11.347656 -4.003906 -11.089844 Z M -2.734375 -9.402344 "/></g></g></g><g fill="#8fbd4f" fill-opacity="1"><g transform="translate(297.571105, 326.493216)"><g/></g></g><g fill="#8fbd4f" fill-opacity="1"><g transform="translate(305.387532, 319.375661)"><g><path d="M -10.199219 -16.296875 L -7.5625 -13.695312 L -6.234375 -15.042969 L -4.457031 -13.292969 L -5.785156 -11.945312 L -0.472656 -6.707031 C -0.140625 -6.378906 0.289062 -5.957031 0.714844 -5.6875 C 1.144531 -5.417969 1.589844 -5.285156 1.898438 -5.597656 C 2.054688 -5.753906 2.226562 -5.96875 2.34375 -6.125 C 2.398438 -6.222656 2.476562 -6.300781 2.535156 -6.398438 L 4.46875 -4.492188 C 4.390625 -4.375 4.332031 -4.238281 4.257812 -4.121094 C 4.101562 -3.890625 3.871094 -3.617188 3.566406 -3.304688 C 2.429688 -2.152344 1.304688 -2.179688 0.292969 -2.640625 C -0.71875 -3.097656 -1.636719 -3.964844 -2.261719 -4.582031 L -7.730469 -9.972656 L -8.714844 -8.976562 L -10.492188 -10.726562 L -9.507812 -11.722656 L -12.144531 -14.324219 Z M -10.199219 -16.296875 "/></g></g></g><g fill="#8fbd4f" fill-opacity="1"><g transform="translate(314.42528, 309.847225)"><g><path d="M -5.023438 -12.902344 C -5.246094 -12.765625 -5.445312 -12.574219 -5.601562 -12.382812 C -5.886719 -12.046875 -6.179688 -11.613281 -6.148438 -11.011719 C -6.148438 -10.332031 -5.84375 -9.96875 -5.484375 -9.667969 L 2.488281 -2.960938 L 0.707031 -0.839844 L -10.773438 -10.496094 L -8.992188 -12.617188 L -7.710938 -11.539062 C -7.839844 -11.683594 -8.074219 -12.132812 -8.125 -12.75 C -8.160156 -13.351562 -8.027344 -14.101562 -7.375 -14.878906 Z M -5.023438 -12.902344 "/></g></g></g><g fill="#8fbd4f" fill-opacity="1"><g transform="translate(322.755044, 299.586485)"><g><path d="M 0.234375 -9.664062 L 1.648438 -8.671875 C 2.789062 -7.765625 3.363281 -6.824219 3.445312 -5.558594 C 3.5 -4.917969 3.261719 -4.246094 2.738281 -3.503906 C 1.710938 -2.046875 0.382812 -1.878906 -0.675781 -2.085938 C -1.289062 -2.21875 -1.921875 -2.460938 -2.542969 -2.867188 L -8.710938 -7.210938 C -9.851562 -8.117188 -10.457031 -9.113281 -10.558594 -10.394531 C -10.628906 -11.011719 -10.390625 -11.683594 -9.867188 -12.421875 C -8.839844 -13.878906 -7.511719 -14.050781 -6.476562 -13.855469 C -5.863281 -13.726562 -5.25 -13.5 -4.652344 -13.109375 L -1.089844 -10.597656 L -3.726562 -6.855469 L -1.058594 -4.972656 C -0.570312 -4.664062 -0.140625 -4.5625 0.246094 -4.589844 C 0.4375 -4.621094 0.617188 -4.734375 0.757812 -4.933594 C 1.058594 -5.359375 0.933594 -5.75 0.660156 -6.078125 C 0.527344 -6.273438 0.339844 -6.4375 0.09375 -6.609375 L -1.25 -7.558594 Z M -5.496094 -8.101562 L -4.34375 -9.738281 L -6.070312 -10.953125 C -6.542969 -11.285156 -6.941406 -11.433594 -7.367188 -11.398438 C -7.558594 -11.367188 -7.753906 -11.234375 -7.894531 -11.03125 C -8.195312 -10.605469 -8.03125 -10.222656 -7.773438 -9.871094 C -7.640625 -9.679688 -7.453125 -9.515625 -7.222656 -9.316406 Z M -5.496094 -8.101562 "/></g></g></g><g fill="#8fbd4f" fill-opacity="1"><g transform="translate(331.351769, 286.862412)"><g><path d="M -7.277344 -10.289062 C -7.492188 -10.410156 -7.824219 -10.601562 -8.105469 -10.667969 C -8.398438 -10.710938 -8.671875 -10.613281 -8.851562 -10.304688 C -9.082031 -9.902344 -8.871094 -9.558594 -8.53125 -9.265625 C -8.351562 -9.132812 -8.152344 -8.988281 -7.9375 -8.863281 C -7.726562 -8.742188 -7.511719 -8.617188 -7.320312 -8.507812 L -8.699219 -6.109375 L -9.246094 -6.421875 C -10.199219 -6.96875 -10.851562 -7.816406 -11.164062 -8.757812 C -11.476562 -9.695312 -11.394531 -10.722656 -10.859375 -11.652344 C -10.410156 -12.4375 -9.691406 -12.972656 -8.851562 -13.21875 C -8.015625 -13.464844 -7.085938 -13.375 -6.230469 -12.882812 L 1.757812 -8.289062 C 2.925781 -7.621094 3.488281 -7.390625 4.113281 -7.15625 L 2.761719 -4.804688 C 2.375 -4.738281 1.757812 -5.09375 1.589844 -5.191406 L 1.496094 -5.023438 C 1.640625 -4.78125 1.828125 -4.390625 1.898438 -3.90625 C 1.96875 -3.425781 1.898438 -2.863281 1.625 -2.386719 C 1.449219 -2.078125 1.042969 -1.648438 0.347656 -1.539062 C -0.335938 -1.394531 -1.335938 -1.527344 -2.691406 -2.304688 C -4.144531 -3.140625 -4.941406 -4.167969 -5.328125 -5.148438 C -5.714844 -6.128906 -5.753906 -7.105469 -5.722656 -7.875 C -5.691406 -8.648438 -5.644531 -9.222656 -5.851562 -9.46875 Z M -3.640625 -8.199219 C -3.8125 -6.746094 -2.933594 -5.578125 -1.695312 -4.867188 C -1.53125 -4.769531 -1.230469 -4.628906 -0.914062 -4.574219 C -0.574219 -4.503906 -0.265625 -4.550781 -0.101562 -4.835938 C 0.214844 -5.382812 0.140625 -6.023438 -0.3125 -6.285156 Z M -3.640625 -8.199219 "/></g></g></g><g fill="#8fbd4f" fill-opacity="1"><g transform="translate(338.708586, 273.419991)"><g><path d="M -15.078125 -11.929688 L -11.722656 -10.363281 L -10.921875 -12.078125 L -8.660156 -11.023438 L -9.460938 -9.308594 L -2.699219 -6.160156 C -2.273438 -5.960938 -1.726562 -5.707031 -1.234375 -5.597656 C -0.742188 -5.488281 -0.273438 -5.515625 -0.0898438 -5.910156 C 0.00390625 -6.109375 0.09375 -6.371094 0.148438 -6.558594 C 0.171875 -6.667969 0.21875 -6.765625 0.238281 -6.878906 L 2.699219 -5.730469 C 2.667969 -5.59375 2.660156 -5.449219 2.625 -5.3125 C 2.558594 -5.039062 2.433594 -4.707031 2.25 -4.308594 C 1.566406 -2.839844 0.496094 -2.492188 -0.609375 -2.585938 C -1.71875 -2.675781 -2.875 -3.183594 -3.667969 -3.554688 L -10.628906 -6.800781 L -11.222656 -5.53125 L -13.484375 -6.585938 L -12.890625 -7.851562 L -16.25 -9.417969 Z M -15.078125 -11.929688 "/></g></g></g><g fill="#8fbd4f" fill-opacity="1"><g transform="translate(344.067834, 261.368884)"><g><path d="M -2.289062 -9.394531 L -0.667969 -8.800781 C 0.671875 -8.222656 1.472656 -7.464844 1.882812 -6.261719 C 2.097656 -5.65625 2.042969 -4.949219 1.730469 -4.097656 C 1.121094 -2.421875 -0.117188 -1.914062 -1.195312 -1.839844 C -1.820312 -1.804688 -2.496094 -1.875 -3.203125 -2.105469 L -10.285156 -4.695312 C -11.621094 -5.273438 -12.46875 -6.078125 -12.902344 -7.289062 C -13.128906 -7.867188 -13.070312 -8.578125 -12.761719 -9.425781 C -12.148438 -11.101562 -10.910156 -11.613281 -9.859375 -11.695312 C -9.234375 -11.726562 -8.582031 -11.667969 -7.90625 -11.445312 L -3.808594 -9.949219 L -5.382812 -5.648438 L -2.316406 -4.527344 C -1.765625 -4.355469 -1.324219 -4.367188 -0.953125 -4.496094 C -0.777344 -4.578125 -0.636719 -4.730469 -0.550781 -4.960938 C -0.371094 -5.449219 -0.597656 -5.796875 -0.945312 -6.039062 C -1.121094 -6.191406 -1.34375 -6.304688 -1.628906 -6.40625 L -3.175781 -6.972656 Z M -7.417969 -6.390625 L -6.730469 -8.273438 L -8.710938 -8.996094 C -9.253906 -9.195312 -9.675781 -9.234375 -10.082031 -9.089844 C -10.257812 -9.007812 -10.410156 -8.828125 -10.496094 -8.597656 C -10.671875 -8.109375 -10.414062 -7.78125 -10.074219 -7.507812 C -9.898438 -7.355469 -9.675781 -7.246094 -9.398438 -7.117188 Z M -7.417969 -6.390625 "/></g></g></g><g fill="#8fbd4f" fill-opacity="1"><g transform="translate(349.063325, 246.837914)"><g><path d="M 2.058594 -7.824219 L 1.355469 -5.144531 L 0.398438 -5.398438 C 0.703125 -4.835938 0.917969 -4.351562 1.023438 -3.785156 C 1.085938 -3.484375 1.070312 -3.207031 1.007812 -2.96875 C 0.8125 -2.226562 0.253906 -1.832031 -0.386719 -1.660156 C -1.007812 -1.457031 -1.765625 -1.484375 -2.375 -1.644531 L -11.632812 -4.082031 C -12.242188 -4.242188 -12.917969 -4.589844 -13.382812 -5.082031 C -13.828125 -5.539062 -14.121094 -6.15625 -13.925781 -6.898438 C -13.792969 -7.402344 -13.363281 -7.855469 -12.964844 -8.175781 C -12.714844 -8.367188 -12.476562 -8.53125 -12.199219 -8.710938 L -18.140625 -10.277344 L -17.4375 -12.953125 Z M -9.972656 -8.125 C -10.394531 -8.238281 -10.953125 -7.957031 -11.058594 -7.5625 C -11.160156 -7.164062 -10.875 -6.746094 -10.371094 -6.613281 L -2.226562 -4.472656 C -1.722656 -4.339844 -1.269531 -4.558594 -1.164062 -4.957031 C -1.058594 -5.355469 -1.324219 -5.851562 -1.828125 -5.984375 Z M -9.972656 -8.125 "/></g></g></g></svg>