<svg xmlns="http://www.w3.org/2000/svg" xmlns:xlink="http://www.w3.org/1999/xlink" width="500" zoomAndPan="magnify" viewBox="0 0 375 374.999991" height="500" preserveAspectRatio="xMidYMid meet" version="1.0"><defs><g/><clipPath id="e6432bc6c8"><path d="M 51 63.863281 L 324.429688 63.863281 L 324.429688 217 L 51 217 Z M 51 63.863281 " clip-rule="nonzero"/></clipPath><clipPath id="311bdbe5e7"><path d="M 52 203 L 324 203 L 324 337.613281 L 52 337.613281 Z M 52 203 " clip-rule="nonzero"/></clipPath></defs><rect x="-37.5" width="450" fill="#ffffff" y="-37.499999" height="449.999989" fill-opacity="1"/><rect x="-37.5" width="450" fill="#ffffff" y="-37.499999" height="449.999989" fill-opacity="1"/><rect x="-37.5" width="450" fill="#fdfff9" y="-37.499999" height="449.999989" fill-opacity="1"/><g clip-path="url(#e6432bc6c8)"><path fill="#8fbd4f" d="M 184.320312 149.503906 C 175.265625 142.261719 170.089844 131.394531 170.089844 119.492188 C 170.089844 106.296875 176.816406 94.136719 187.683594 87.148438 C 198.550781 94.136719 205.28125 106.554688 205.28125 119.492188 C 205.28125 131.136719 200.105469 142.261719 191.050781 149.503906 L 187.683594 108.367188 Z M 141.113281 150.539062 C 159.222656 152.609375 173.453125 167.101562 175.265625 185.210938 C 166.984375 172.792969 150.945312 184.953125 133.089844 170.722656 C 125.070312 164.253906 119.894531 154.679688 118.859375 144.332031 C 132.574219 134.238281 150.945312 133.980469 164.914062 143.296875 L 165.433594 143.554688 C 178.113281 152.09375 186.132812 166.582031 186.390625 182.105469 C 186.648438 166.582031 194.671875 152.09375 207.351562 143.554688 L 207.867188 143.296875 C 221.839844 133.980469 240.46875 134.5 253.921875 144.332031 C 252.886719 154.679688 247.714844 164.253906 239.691406 170.722656 C 221.839844 184.953125 205.796875 173.050781 197.777344 185.210938 C 199.585938 167.101562 213.816406 152.609375 231.929688 150.539062 C 202.691406 153.386719 188.71875 175.378906 190.015625 216.261719 C 187.683594 216.261719 185.097656 216.003906 182.511719 215.484375 C 183.546875 175.121094 169.574219 153.644531 140.59375 150.539062 Z M 187.683594 63.601562 C 225.460938 63.601562 259.617188 78.867188 284.457031 103.707031 C 309.292969 128.546875 324.558594 162.703125 324.558594 200.476562 C 324.558594 205.136719 324.300781 209.535156 324.042969 213.933594 C 319.902344 214.191406 316.539062 214.191406 313.691406 214.191406 C 314.210938 209.792969 314.46875 205.136719 314.46875 200.476562 C 314.46875 165.546875 300.238281 133.980469 277.46875 110.953125 C 254.699219 88.183594 222.875 73.953125 187.945312 73.953125 C 153.015625 73.953125 121.1875 88.183594 98.417969 110.953125 C 75.648438 133.980469 61.417969 165.546875 61.417969 200.476562 C 61.417969 205.136719 61.675781 209.792969 62.195312 214.191406 C 59.347656 214.191406 55.984375 214.191406 51.84375 213.933594 C 51.328125 209.535156 51.328125 204.875 51.328125 200.476562 C 51.328125 162.703125 66.59375 128.546875 91.433594 103.707031 C 116.273438 79.128906 150.425781 63.601562 188.203125 63.601562 Z M 187.683594 63.601562 " fill-opacity="1" fill-rule="evenodd"/></g><g clip-path="url(#311bdbe5e7)"><path fill="#054d3b" d="M 92.726562 212.378906 C 103.59375 207.722656 114.460938 203.066406 127.914062 203.066406 C 139.558594 203.066406 150.425781 207.722656 161.292969 212.378906 C 171.382812 216.777344 181.214844 220.917969 190.789062 220.917969 C 200.363281 220.917969 210.453125 216.519531 220.546875 212.378906 C 231.671875 207.722656 242.539062 203.066406 254.183594 203.066406 C 265.308594 203.066406 275.917969 207.722656 286.523438 212.378906 C 303.601562 220.144531 308 221.4375 323.523438 220.917969 C 319.125 250.675781 305.15625 277.324219 284.972656 297.507812 C 260.132812 322.347656 225.980469 337.613281 188.203125 337.613281 C 150.425781 337.613281 116.273438 322.347656 91.433594 297.507812 C 71.25 277.324219 57.277344 250.675781 52.878906 220.917969 C 68.664062 221.695312 74.875 220.402344 93.246094 212.378906 Z M 181.734375 230.234375 C 180.699219 234.375 178.628906 237.476562 176.042969 239.546875 C 169.054688 246.535156 158.449219 248.863281 149.132812 245.5 C 143.179688 243.429688 138.007812 243.6875 132.832031 246.015625 C 124.8125 249.378906 114.980469 262.058594 106.179688 252.226562 C 105.921875 251.710938 105.144531 251.710938 104.628906 251.96875 C 104.113281 252.226562 103.851562 253.003906 104.113281 253.519531 C 111.355469 261.023438 118.601562 262.058594 126.105469 256.109375 C 132.574219 250.15625 138.265625 248.34375 142.921875 250.15625 C 144.214844 250.675781 147.0625 251.96875 147.0625 253.777344 C 147.0625 254.296875 142.664062 258.695312 141.628906 259.988281 C 137.230469 266.457031 138.007812 272.148438 127.65625 272.925781 C 127.140625 272.925781 126.878906 273.445312 126.878906 273.960938 C 126.878906 274.480469 127.398438 274.738281 127.914062 274.738281 C 145.511719 277.324219 142.921875 256.882812 155.601562 255.332031 C 162.585938 254.296875 164.914062 256.625 172.9375 252.484375 C 179.664062 249.898438 182.25 250.15625 181.214844 253.519531 C 179.921875 257.917969 177.59375 263.09375 174.230469 269.046875 C 169.574219 277.84375 169.054688 285.605469 172.417969 292.074219 C 177.59375 302.164062 175.78125 310.183594 166.726562 315.617188 C 166.210938 316.136719 166.210938 316.914062 166.46875 317.429688 C 166.984375 317.949219 167.761719 318.207031 168.28125 317.949219 C 179.921875 311.996094 183.546875 303.714844 178.886719 292.847656 C 174.488281 283.277344 175.265625 276.03125 181.214844 271.113281 C 184.0625 268.785156 186.132812 276.03125 187.683594 277.84375 C 192.34375 284.050781 199.585938 285.605469 196.742188 296.988281 C 196.484375 297.507812 196.742188 298.023438 197 298.28125 C 197.257812 298.542969 197.777344 298.800781 198.292969 298.800781 C 198.8125 298.800781 199.070312 298.28125 199.328125 297.765625 C 201.398438 292.074219 201.140625 287.15625 198.8125 283.535156 C 193.636719 274.738281 184.0625 269.5625 188.980469 257.917969 C 190.015625 255.847656 191.824219 255.332031 194.414062 256.367188 C 201.398438 258.179688 207.089844 259.472656 211.75 259.988281 C 222.617188 261.023438 228.566406 253.777344 235.554688 259.210938 C 238.398438 261.542969 240.46875 264.386719 241.761719 268.269531 C 245.386719 278.878906 240.46875 282.757812 254.699219 289.226562 C 255.21875 289.484375 255.992188 289.226562 256.511719 288.449219 C 256.769531 287.933594 256.769531 287.15625 256.253906 286.640625 C 241.503906 279.136719 254.957031 269.304688 243.574219 257.917969 C 243.054688 257.402344 243.054688 256.367188 243.574219 255.589844 C 244.089844 254.8125 245.125 254.8125 245.902344 255.332031 C 258.320312 262.835938 268.929688 262.835938 277.988281 255.332031 C 278.761719 254.554688 278.761719 253.519531 278.246094 252.746094 C 277.726562 251.96875 276.691406 251.710938 275.917969 251.96875 C 263.238281 258.953125 257.289062 253.777344 246.679688 248.605469 C 240.726562 245.757812 234.519531 245.757812 227.53125 249.121094 C 214.59375 254.039062 204.246094 251.191406 196.222656 239.808594 C 194.414062 237.21875 193.117188 234.113281 192.082031 230.75 C 188.460938 230.75 184.839844 230.234375 181.476562 229.714844 Z M 181.734375 230.234375 " fill-opacity="1" fill-rule="evenodd"/></g><g fill="#054d3b" fill-opacity="1"><g transform="translate(38.427257, 183.176845)"><g><path d="M -28.8125 -30.546875 L -21.96875 -28.890625 L -24.875 -16.90625 L -18.078125 -15.25 L -15.390625 -26.328125 L -8.5625 -24.6875 L -11.25 -13.609375 L 2.484375 -10.28125 L 0.609375 -2.484375 L -33.59375 -10.765625 Z M -28.8125 -30.546875 "/></g></g></g><g fill="#054d3b" fill-opacity="1"><g transform="translate(54.799886, 135.506062)"><g><path d="M -24.921875 -27.015625 L 5.375 -9.109375 L 1.296875 -2.203125 L -29 -20.109375 Z M -24.921875 -27.015625 "/></g></g></g><g fill="#054d3b" fill-opacity="1"><g transform="translate(77.431369, 103.171984)"><g><path d="M -18.671875 -21.078125 L -23.390625 -26.296875 L -5.0625 -42.921875 L -0.34375 -37.703125 L -6.546875 -32.078125 L 12.375 -11.234375 L 6.4375 -5.84375 L -12.484375 -26.6875 Z M -18.671875 -21.078125 "/></g></g></g><g fill="#054d3b" fill-opacity="1"><g transform="translate(117.596907, 71.704828)"><g><path d="M -5.328125 -16.8125 C -7.128906 -21.570312 -7.03125 -26.210938 -5.03125 -30.734375 C -3.039062 -35.265625 0.234375 -38.398438 4.796875 -40.140625 C 9.398438 -41.878906 13.929688 -41.71875 18.390625 -39.65625 C 22.859375 -37.59375 26 -34.164062 27.8125 -29.375 C 29.644531 -24.5625 29.601562 -19.914062 27.6875 -15.4375 C 25.769531 -10.957031 22.453125 -7.828125 17.734375 -6.046875 C 12.921875 -4.222656 8.332031 -4.34375 3.96875 -6.40625 C -0.382812 -8.476562 -3.484375 -11.945312 -5.328125 -16.8125 Z M 2.765625 -19.890625 C 3.421875 -18.160156 4.285156 -16.679688 5.359375 -15.453125 C 6.429688 -14.234375 7.816406 -13.382812 9.515625 -12.90625 C 11.210938 -12.425781 13.03125 -12.554688 14.96875 -13.296875 C 17.769531 -14.347656 19.519531 -16.101562 20.21875 -18.5625 C 20.914062 -21.019531 20.75 -23.601562 19.71875 -26.3125 C 18.707031 -29 17.109375 -31.03125 14.921875 -32.40625 C 12.742188 -33.789062 10.28125 -33.960938 7.53125 -32.921875 C 4.820312 -31.890625 3.097656 -30.128906 2.359375 -27.640625 C 1.617188 -25.160156 1.753906 -22.578125 2.765625 -19.890625 Z M 2.765625 -19.890625 "/></g></g></g><g fill="#054d3b" fill-opacity="1"><g transform="translate(178.561346, 55.448903)"><g/></g></g><g fill="#054d3b" fill-opacity="1"><g transform="translate(216.873298, 57.647791)"><g><path d="M 18.25 -31.890625 L 10.296875 2.390625 L 2.5 0.578125 L 10.453125 -33.703125 Z M 18.25 -31.890625 "/></g></g></g><g fill="#054d3b" fill-opacity="1"><g transform="translate(254.4693, 68.927761)"><g><path d="M 20.53125 -12.921875 L 8.96875 5.609375 L 2.171875 1.359375 L 20.8125 -28.484375 L 27.609375 -24.234375 L 27.890625 1.6875 L 27.984375 1.75 L 39.5625 -16.78125 L 46.359375 -12.546875 L 27.71875 17.296875 L 20.921875 13.0625 L 20.609375 -12.890625 Z M 20.53125 -12.921875 "/></g></g></g><g fill="#054d3b" fill-opacity="1"><g transform="translate(302.729715, 105.718723)"><g><path d="M 41.890625 -3 L 36.28125 1.234375 L 28.828125 -8.578125 L 23.25 -4.34375 L 30.125 4.71875 L 24.515625 8.96875 L 17.640625 -0.09375 L 6.390625 8.4375 L 1.546875 2.046875 L 29.59375 -19.203125 Z M 41.890625 -3 "/></g></g></g><g fill="#054d3b" fill-opacity="1"><g transform="translate(329.93422, 147.474515)"><g><path d="M 17.203125 -3.875 C 22.097656 -5.269531 26.71875 -4.785156 31.0625 -2.421875 C 35.40625 -0.0546875 38.25 3.472656 39.59375 8.171875 C 40.9375 12.910156 40.390625 17.414062 37.953125 21.6875 C 35.523438 25.957031 31.847656 28.796875 26.921875 30.203125 C 21.972656 31.609375 17.347656 31.164062 13.046875 28.875 C 8.742188 26.582031 5.90625 23.015625 4.53125 18.171875 C 3.113281 13.222656 3.617188 8.664062 6.046875 4.5 C 8.484375 0.34375 12.203125 -2.445312 17.203125 -3.875 Z M 19.578125 4.4375 C 17.804688 4.9375 16.265625 5.664062 14.953125 6.625 C 13.648438 7.59375 12.6875 8.90625 12.0625 10.5625 C 11.445312 12.226562 11.425781 14.054688 12 16.046875 C 12.8125 18.921875 14.40625 20.804688 16.78125 21.703125 C 19.164062 22.609375 21.753906 22.664062 24.546875 21.875 C 27.304688 21.082031 29.46875 19.65625 31.03125 17.59375 C 32.59375 15.539062 32.972656 13.101562 32.171875 10.28125 C 31.367188 7.5 29.757812 5.628906 27.34375 4.671875 C 24.925781 3.722656 22.335938 3.644531 19.578125 4.4375 Z M 19.578125 4.4375 "/></g></g></g><g fill="#8fbd4f" fill-opacity="1"><g transform="translate(31.668526, 243.119066)"><g><path d="M 18.523438 -0.304688 L 15.066406 0.578125 L 15.515625 2.34375 L 13.183594 2.9375 L 12.734375 1.171875 L 5.769531 2.945312 C 5.335938 3.058594 4.769531 3.203125 4.335938 3.421875 C 3.902344 3.640625 3.570312 3.945312 3.671875 4.355469 C 3.726562 4.558594 3.816406 4.808594 3.886719 4.980469 C 3.941406 5.078125 3.964844 5.179688 4.019531 5.277344 L 1.484375 5.921875 C 1.425781 5.800781 1.339844 5.683594 1.28125 5.5625 C 1.164062 5.320312 1.054688 4.996094 0.949219 4.585938 C 0.566406 3.074219 1.152344 2.160156 2.03125 1.554688 C 2.914062 0.949219 4.085938 0.621094 4.90625 0.414062 L 12.074219 -1.414062 L 11.742188 -2.722656 L 14.074219 -3.316406 L 14.40625 -2.007812 L 17.863281 -2.890625 Z M 18.523438 -0.304688 "/></g></g></g><g fill="#8fbd4f" fill-opacity="1"><g transform="translate(35.042857, 255.451603)"><g><path d="M 1.230469 3.515625 L 0.347656 0.996094 L 18.683594 -5.414062 L 19.566406 -2.894531 L 13.726562 -0.851562 C 13.769531 -0.8125 13.90625 -0.746094 14.105469 -0.648438 C 14.476562 -0.472656 14.980469 -0.226562 15.390625 0.132812 C 15.59375 0.316406 15.710938 0.496094 15.789062 0.722656 C 16.027344 1.394531 15.792969 2.007812 15.398438 2.484375 C 14.980469 2.964844 14.359375 3.351562 13.785156 3.550781 L 2.609375 7.457031 L 1.726562 4.9375 L 12.527344 1.164062 C 13.050781 0.980469 13.023438 0.652344 12.917969 0.355469 C 12.820312 0.078125 12.621094 -0.0195312 12.382812 -0.132812 C 12.257812 -0.171875 12.132812 -0.210938 11.980469 -0.242188 Z M 1.230469 3.515625 "/></g></g></g><g fill="#8fbd4f" fill-opacity="1"><g transform="translate(40.372401, 269.768054)"><g><path d="M 7.933594 4.878906 L 6.421875 5.574219 C 5.117188 6.085938 4.050781 6.109375 2.957031 5.5625 C 2.398438 5.296875 1.957031 4.773438 1.59375 3.980469 C 0.875 2.417969 1.378906 1.230469 2.066406 0.449219 C 2.472656 0 2.980469 -0.40625 3.621094 -0.730469 L 10.226562 -3.757812 C 11.53125 -4.269531 12.65625 -4.289062 13.773438 -3.753906 C 14.320312 -3.511719 14.765625 -2.988281 15.128906 -2.195312 C 15.84375 -0.632812 15.34375 0.554688 14.675781 1.324219 C 14.273438 1.773438 13.785156 2.167969 13.171875 2.480469 L 9.351562 4.230469 L 7.511719 0.21875 L 4.65625 1.527344 C 4.160156 1.785156 3.867188 2.09375 3.703125 2.429688 C 3.636719 2.605469 3.640625 2.808594 3.742188 3.023438 C 3.949219 3.480469 4.335938 3.5625 4.742188 3.496094 C 4.96875 3.480469 5.195312 3.402344 5.457031 3.28125 L 6.898438 2.621094 Z M 9.410156 -0.652344 L 10.214844 1.101562 L 12.066406 0.253906 C 12.570312 0.0234375 12.886719 -0.238281 13.0625 -0.609375 C 13.128906 -0.785156 13.113281 -1.011719 13.015625 -1.226562 C 12.804688 -1.683594 12.402344 -1.734375 11.988281 -1.6875 C 11.761719 -1.671875 11.535156 -1.597656 11.261719 -1.5 Z M 9.410156 -0.652344 "/></g></g></g><g fill="#8fbd4f" fill-opacity="1"><g transform="translate(46.808084, 283.027579)"><g/></g></g><g fill="#8fbd4f" fill-opacity="1"><g transform="translate(51.957486, 292.060859)"><g><path d="M 3.957031 5.84375 L 9.089844 1.121094 L 9.695312 0.550781 L 9.632812 0.464844 L 8.882812 0.8125 L 2.59375 3.828125 L 1.347656 1.992188 L 12.117188 -7.886719 L 13.480469 -5.875 L 7.695312 -0.9375 L 7.078125 -0.390625 L 7.167969 -0.257812 L 7.917969 -0.609375 L 14.800781 -3.929688 L 15.6875 -2.617188 L 10.054688 2.542969 L 9.449219 3.109375 L 9.539062 3.242188 L 10.277344 2.871094 L 17.007812 -0.667969 L 18.371094 1.34375 L 5.203125 7.679688 Z M 3.957031 5.84375 "/></g></g></g><g fill="#8fbd4f" fill-opacity="1"><g transform="translate(62.463856, 306.832747)"><g><path d="M 11.71875 -3.175781 C 11.902344 -3.328125 12.1875 -3.566406 12.335938 -3.796875 C 12.472656 -4.046875 12.476562 -4.328125 12.257812 -4.589844 C 11.96875 -4.933594 11.585938 -4.855469 11.210938 -4.644531 C 11.03125 -4.53125 10.832031 -4.398438 10.652344 -4.242188 C 10.46875 -4.089844 10.285156 -3.9375 10.125 -3.800781 L 8.410156 -5.847656 L 8.875 -6.238281 C 9.683594 -6.917969 10.667969 -7.226562 11.621094 -7.199219 C 12.578125 -7.171875 13.480469 -6.753906 14.140625 -5.964844 C 14.703125 -5.296875 14.949219 -4.46875 14.894531 -3.628906 C 14.839844 -2.789062 14.449219 -1.980469 13.71875 -1.367188 L 6.917969 4.339844 C 5.925781 5.171875 5.53125 5.605469 5.113281 6.09375 L 3.429688 4.089844 C 3.5 3.722656 4.027344 3.277344 4.167969 3.160156 L 4.050781 3.019531 C 3.78125 3.070312 3.367188 3.109375 2.90625 3.011719 C 2.445312 2.914062 1.960938 2.667969 1.621094 2.261719 C 1.402344 2 1.144531 1.488281 1.277344 0.824219 C 1.375 0.15625 1.824219 -0.703125 2.980469 -1.671875 C 4.214844 -2.707031 5.410156 -3.089844 6.425781 -3.113281 C 7.441406 -3.136719 8.335938 -2.851562 9.023438 -2.566406 C 9.710938 -2.28125 10.214844 -2.050781 10.507812 -2.15625 Z M 8.621094 -0.578125 C 7.367188 -1.210938 6.015625 -0.804688 4.964844 0.078125 C 4.824219 0.199219 4.597656 0.421875 4.441406 0.6875 C 4.265625 0.972656 4.203125 1.269531 4.40625 1.511719 C 4.796875 1.976562 5.402344 2.125 5.789062 1.800781 Z M 8.621094 -0.578125 "/></g></g></g><g fill="#8fbd4f" fill-opacity="1"><g transform="translate(72.256263, 318.044082)"><g><path d="M -1.636719 2.25 C -1.636719 2.285156 -1.597656 2.324219 -1.542969 2.378906 C -1.46875 2.492188 -1.035156 2.992188 -0.511719 3.066406 C 0.0117188 3.140625 0.535156 3.023438 1.039062 2.742188 C 1.28125 2.609375 1.484375 2.441406 1.671875 2.253906 L 10.40625 -10.035156 L 12.265625 -8.195312 L 6.761719 -1.148438 L 6.277344 -0.585938 L 6.351562 -0.511719 L 6.910156 -0.996094 L 13.914062 -6.554688 L 15.773438 -4.710938 L 3.007812 4.511719 C 2.1875 5.148438 1.199219 5.582031 0.207031 5.679688 C -0.78125 5.777344 -1.753906 5.554688 -2.503906 4.8125 C -2.5625 4.757812 -2.636719 4.683594 -2.730469 4.589844 C -2.898438 4.421875 -3.105469 4.179688 -3.3125 3.9375 Z M -1.636719 2.25 "/></g></g></g><g fill="#8fbd4f" fill-opacity="1"><g transform="translate(82.704786, 327.970536)"><g/></g></g><g fill="#8fbd4f" fill-opacity="1"><g transform="translate(90.657122, 334.536297)"><g><path d="M 9.328125 -11.09375 L 11.492188 -9.527344 L 10.933594 -8.757812 C 11.546875 -8.835938 12.054688 -8.859375 12.621094 -8.742188 C 12.890625 -8.710938 13.136719 -8.597656 13.328125 -8.460938 C 13.929688 -8.027344 14.085938 -7.386719 14.054688 -6.757812 C 13.988281 -6.125 13.699219 -5.453125 13.339844 -4.960938 L 7.933594 2.511719 C 7.578125 3.003906 7.03125 3.488281 6.464844 3.730469 C 5.863281 3.980469 5.207031 4.027344 4.609375 3.59375 C 4.199219 3.300781 3.941406 2.753906 3.792969 2.289062 C 3.707031 1.996094 3.644531 1.722656 3.578125 1.414062 L 0.105469 6.210938 L -2.054688 4.644531 Z M 4.878906 -0.386719 C 4.628906 -0.0429688 4.6875 0.554688 5.007812 0.785156 C 5.328125 1.019531 5.804688 0.90625 6.097656 0.496094 L 10.855469 -6.074219 C 11.148438 -6.480469 11.109375 -6.96875 10.785156 -7.199219 C 10.464844 -7.433594 9.929688 -7.363281 9.632812 -6.957031 Z M 4.878906 -0.386719 "/></g></g></g><g fill="#8fbd4f" fill-opacity="1"><g transform="translate(103.093297, 343.1211)"><g><path d="M 10.976562 -16.058594 L 13.261719 -14.675781 L 3.1875 1.933594 L 0.902344 0.546875 Z M 10.976562 -16.058594 "/></g></g></g><g fill="#8fbd4f" fill-opacity="1"><g transform="translate(112.620031, 348.694428)"><g><path d="M 9.503906 -7.558594 C 9.609375 -7.773438 9.773438 -8.101562 9.824219 -8.375 C 9.847656 -8.660156 9.742188 -8.917969 9.433594 -9.074219 C 9.03125 -9.273438 8.714844 -9.050781 8.453125 -8.707031 C 8.335938 -8.53125 8.203125 -8.332031 8.097656 -8.117188 C 7.992188 -7.90625 7.882812 -7.691406 7.789062 -7.503906 L 5.402344 -8.703125 L 5.675781 -9.246094 C 6.148438 -10.1875 6.929688 -10.863281 7.820312 -11.214844 C 8.707031 -11.566406 9.699219 -11.542969 10.621094 -11.082031 C 11.398438 -10.6875 11.953125 -10.027344 12.234375 -9.234375 C 12.519531 -8.441406 12.480469 -7.542969 12.054688 -6.691406 L 8.070312 1.242188 C 7.488281 2.398438 7.300781 2.953125 7.109375 3.570312 L 4.769531 2.394531 C 4.6875 2.027344 4.996094 1.414062 5.078125 1.25 L 4.914062 1.167969 C 4.691406 1.320312 4.324219 1.519531 3.863281 1.613281 C 3.402344 1.707031 2.855469 1.671875 2.386719 1.433594 C 2.078125 1.28125 1.640625 0.914062 1.5 0.25 C 1.324219 -0.398438 1.398438 -1.367188 2.074219 -2.714844 C 2.796875 -4.15625 3.742188 -4.980469 4.664062 -5.40625 C 5.585938 -5.828125 6.523438 -5.921875 7.265625 -5.933594 C 8.011719 -5.945312 8.566406 -5.929688 8.792969 -6.144531 Z M 7.6875 -3.945312 C 6.28125 -4.03125 5.207031 -3.125 4.589844 -1.894531 C 4.503906 -1.730469 4.386719 -1.433594 4.351562 -1.128906 C 4.304688 -0.796875 4.363281 -0.5 4.644531 -0.359375 C 5.1875 -0.0859375 5.804688 -0.191406 6.027344 -0.640625 Z M 7.6875 -3.945312 "/></g></g></g><g fill="#8fbd4f" fill-opacity="1"><g transform="translate(126.0695, 355.122888)"><g><path d="M 3.472656 1.355469 L 0.984375 0.382812 L 6.234375 -13.085938 L 8.722656 -12.113281 L 8.28125 -10.980469 C 8.339844 -10.988281 8.476562 -11.046875 8.683594 -11.136719 C 9.058594 -11.304688 9.570312 -11.527344 10.109375 -11.601562 C 10.378906 -11.636719 10.597656 -11.609375 10.820312 -11.523438 C 11.484375 -11.265625 11.796875 -10.6875 11.902344 -10.082031 C 11.996094 -9.449219 11.882812 -8.726562 11.664062 -8.160156 L 7.363281 2.871094 L 4.875 1.902344 L 9.03125 -8.761719 C 9.234375 -9.277344 8.964844 -9.464844 8.671875 -9.582031 C 8.398438 -9.6875 8.195312 -9.597656 7.957031 -9.492188 C 7.84375 -9.421875 7.730469 -9.351562 7.609375 -9.257812 Z M 3.472656 1.355469 "/></g></g></g><g fill="#8fbd4f" fill-opacity="1"><g transform="translate(140.360382, 360.345418)"><g><path d="M 9.175781 -16.09375 L 8.171875 -12.667969 L 9.921875 -12.15625 L 9.246094 -9.847656 L 7.496094 -10.359375 L 5.476562 -3.460938 C 5.347656 -3.03125 5.1875 -2.472656 5.152344 -1.988281 C 5.121094 -1.5 5.210938 -1.0625 5.617188 -0.941406 C 5.820312 -0.882812 6.082031 -0.835938 6.265625 -0.808594 C 6.375 -0.804688 6.476562 -0.773438 6.585938 -0.769531 L 5.851562 1.742188 C 5.714844 1.730469 5.574219 1.742188 5.441406 1.730469 C 5.171875 1.707031 4.835938 1.636719 4.429688 1.519531 C 2.933594 1.078125 2.445312 0.109375 2.375 -0.957031 C 2.300781 -2.023438 2.617188 -3.199219 2.855469 -4.011719 L 4.933594 -11.113281 L 3.640625 -11.492188 L 4.316406 -13.796875 L 5.609375 -13.417969 L 6.613281 -16.84375 Z M 9.175781 -16.09375 "/></g></g></g><g fill="#8fbd4f" fill-opacity="1"><g transform="translate(152.672993, 363.713056)"><g><path d="M 7.140625 -9.523438 C 7.210938 -9.859375 7.296875 -10.273438 7.261719 -10.632812 C 7.195312 -10.96875 7.039062 -11.269531 6.625 -11.355469 C 6.289062 -11.421875 6.027344 -11.207031 5.863281 -10.917969 C 5.667969 -10.632812 5.554688 -10.195312 5.484375 -9.859375 C 5.394531 -9.417969 5.535156 -8.90625 5.785156 -8.421875 C 6.011719 -7.945312 6.34375 -7.445312 6.679688 -6.972656 C 7.109375 -6.320312 7.632812 -5.566406 7.929688 -4.777344 C 8.222656 -3.964844 8.394531 -3.09375 8.207031 -2.160156 C 8.023438 -1.253906 7.621094 -0.335938 6.953125 0.28125 C 6.257812 0.921875 5.320312 1.296875 4.074219 1.046875 C 2.496094 0.722656 1.710938 -0.191406 1.371094 -1.175781 C 1.035156 -2.164062 1.152344 -3.273438 1.304688 -4.023438 L 3.738281 -3.527344 C 3.660156 -3.140625 3.574219 -2.589844 3.671875 -2.136719 C 3.761719 -1.660156 3.972656 -1.242188 4.519531 -1.128906 C 5.269531 -0.976562 5.601562 -1.828125 5.773438 -2.65625 C 5.945312 -3.507812 5.292969 -4.53125 4.652344 -5.5 C 4.152344 -6.222656 3.667969 -6.886719 3.34375 -7.679688 C 3.019531 -8.472656 2.839844 -9.320312 3.050781 -10.355469 C 3.21875 -11.183594 3.570312 -12.109375 4.214844 -12.761719 C 4.855469 -13.386719 5.769531 -13.765625 7.015625 -13.539062 C 8.550781 -13.253906 9.289062 -12.511719 9.574219 -11.671875 C 9.863281 -10.832031 9.738281 -9.832031 9.578125 -9.027344 Z M 7.140625 -9.523438 "/></g></g></g><g fill="#8fbd4f" fill-opacity="1"><g transform="translate(166.800917, 366.266563)"><g/></g></g><g fill="#8fbd4f" fill-opacity="1"><g transform="translate(177.032156, 367.384223)"><g><path d="M 5.609375 -10.5 C 5.625 -10.84375 5.648438 -11.265625 5.558594 -11.613281 C 5.441406 -11.9375 5.242188 -12.210938 4.820312 -12.230469 C 4.476562 -12.246094 4.253906 -11.992188 4.132812 -11.679688 C 3.984375 -11.371094 3.9375 -10.921875 3.921875 -10.578125 C 3.898438 -10.132812 4.113281 -9.644531 4.4375 -9.207031 C 4.734375 -8.769531 5.136719 -8.324219 5.539062 -7.910156 C 6.066406 -7.328125 6.695312 -6.664062 7.109375 -5.929688 C 7.523438 -5.167969 7.828125 -4.332031 7.78125 -3.382812 C 7.738281 -2.460938 7.480469 -1.492188 6.917969 -0.777344 C 6.324219 -0.0390625 5.453125 0.472656 4.1875 0.414062 C 2.578125 0.335938 1.660156 -0.449219 1.175781 -1.371094 C 0.691406 -2.296875 0.640625 -3.410156 0.675781 -4.175781 L 3.15625 -4.054688 C 3.140625 -3.660156 3.140625 -3.105469 3.304688 -2.671875 C 3.464844 -2.214844 3.738281 -1.832031 4.292969 -1.804688 C 5.058594 -1.769531 5.261719 -2.65625 5.300781 -3.503906 C 5.34375 -4.375 4.539062 -5.285156 3.761719 -6.144531 C 3.15625 -6.78125 2.574219 -7.363281 2.136719 -8.097656 C 1.695312 -8.835938 1.390625 -9.644531 1.441406 -10.699219 C 1.480469 -11.542969 1.683594 -12.511719 2.222656 -13.253906 C 2.761719 -13.96875 3.605469 -14.484375 4.875 -14.449219 C 6.433594 -14.402344 7.277344 -13.777344 7.6875 -12.992188 C 8.101562 -12.203125 8.128906 -11.199219 8.089844 -10.378906 Z M 5.609375 -10.5 "/></g></g></g><g fill="#8fbd4f" fill-opacity="1"><g transform="translate(191.525434, 367.804438)"><g><path d="M 3.722656 -0.164062 L 1.054688 -0.046875 L 0.195312 -19.453125 L 2.863281 -19.570312 L 3.136719 -13.390625 C 3.1875 -13.421875 3.289062 -13.53125 3.441406 -13.695312 C 3.71875 -14 4.097656 -14.414062 4.558594 -14.699219 C 4.792969 -14.839844 5 -14.902344 5.238281 -14.914062 C 5.953125 -14.945312 6.472656 -14.542969 6.8125 -14.03125 C 7.152344 -13.488281 7.34375 -12.785156 7.371094 -12.175781 L 7.894531 -0.347656 L 5.226562 -0.230469 L 4.722656 -11.664062 C 4.695312 -12.21875 4.375 -12.28125 4.058594 -12.269531 C 3.769531 -12.253906 3.617188 -12.089844 3.441406 -11.898438 C 3.367188 -11.789062 3.292969 -11.679688 3.21875 -11.542969 Z M 3.722656 -0.164062 "/></g></g></g><g fill="#8fbd4f" fill-opacity="1"><g transform="translate(206.768476, 366.822207)"><g><path d="M 7.109375 -4.53125 C 7.222656 -3.132812 6.9375 -2.109375 6.128906 -1.222656 C 5.710938 -0.765625 5.082031 -0.488281 4.21875 -0.371094 C 2.515625 -0.136719 1.546875 -0.960938 1 -1.84375 C 0.6875 -2.363281 0.441406 -2.96875 0.320312 -3.671875 L -0.679688 -10.871094 C -0.792969 -12.269531 -0.515625 -13.347656 0.292969 -14.261719 C 0.683594 -14.714844 1.3125 -14.988281 2.175781 -15.109375 C 3.878906 -15.34375 4.871094 -14.519531 5.417969 -13.664062 C 5.730469 -13.144531 5.96875 -12.566406 6.089844 -11.886719 Z M 3.613281 -11.464844 C 3.566406 -12.019531 3.40625 -12.398438 3.101562 -12.675781 C 2.953125 -12.789062 2.730469 -12.835938 2.496094 -12.804688 C 2 -12.734375 1.835938 -12.367188 1.785156 -11.960938 C 1.734375 -11.738281 1.742188 -11.5 1.808594 -11.214844 L 2.804688 -4.015625 C 2.855469 -3.464844 3.039062 -3.089844 3.316406 -2.832031 C 3.464844 -2.722656 3.660156 -2.667969 3.894531 -2.699219 C 4.390625 -2.769531 4.585938 -3.117188 4.632812 -3.523438 C 4.683594 -3.742188 4.675781 -3.984375 4.613281 -4.265625 Z M 3.613281 -11.464844 "/></g></g></g><g fill="#8fbd4f" fill-opacity="1"><g transform="translate(221.438555, 364.501314)"><g><path d="M 1.734375 -15.257812 L 4.332031 -15.867188 L 7.640625 -1.796875 L 5.042969 -1.1875 L 4.765625 -2.367188 C 4.71875 -2.332031 4.640625 -2.203125 4.542969 -2.046875 C 4.304688 -1.664062 4.03125 -1.21875 3.628906 -0.851562 C 3.425781 -0.667969 3.210938 -0.539062 2.980469 -0.484375 C 2.285156 -0.320312 1.699219 -0.617188 1.265625 -1.085938 C 0.835938 -1.527344 0.519531 -2.183594 0.378906 -2.777344 L -2.332031 -14.300781 L 0.265625 -14.914062 L 2.886719 -3.773438 C 3.011719 -3.234375 3.339844 -3.230469 3.648438 -3.300781 C 3.933594 -3.367188 4.050781 -3.558594 4.1875 -3.78125 C 4.246094 -3.875 4.292969 -4.023438 4.339844 -4.167969 Z M 1.734375 -15.257812 "/></g></g></g><g fill="#8fbd4f" fill-opacity="1"><g transform="translate(236.120276, 360.701277)"><g><path d="M -4.960938 -18.808594 L -2.417969 -19.628906 L 3.546875 -1.144531 L 1.007812 -0.324219 Z M -4.960938 -18.808594 "/></g></g></g><g fill="#8fbd4f" fill-opacity="1"><g transform="translate(246.579685, 357.146733)"><g><path d="M 7.199219 -2.988281 L 4.734375 -1.964844 L 4.371094 -2.84375 C 4.117188 -2.28125 3.875 -1.835938 3.5 -1.421875 C 3.308594 -1.199219 3.082031 -1.050781 2.863281 -0.960938 C 2.179688 -0.675781 1.554688 -0.875 1.050781 -1.265625 C 0.527344 -1.621094 0.109375 -2.21875 -0.125 -2.78125 L -3.65625 -11.300781 C -3.890625 -11.863281 -4.015625 -12.582031 -3.914062 -13.226562 C -3.824219 -13.835938 -3.519531 -14.417969 -2.835938 -14.703125 C -2.375 -14.894531 -1.773438 -14.828125 -1.296875 -14.710938 C -1.003906 -14.632812 -0.738281 -14.542969 -0.4375 -14.4375 L -2.707031 -19.90625 L -0.242188 -20.929688 Z M 0.410156 -12.386719 C 0.25 -12.777344 -0.289062 -13.042969 -0.65625 -12.890625 C -1.019531 -12.738281 -1.171875 -12.273438 -0.980469 -11.808594 L 2.128906 -4.316406 C 2.320312 -3.851562 2.757812 -3.632812 3.121094 -3.785156 C 3.488281 -3.9375 3.710938 -4.429688 3.519531 -4.894531 Z M 0.410156 -12.386719 "/></g></g></g><g fill="#8fbd4f" fill-opacity="1"><g transform="translate(260.384337, 351.051183)"><g/></g></g><g fill="#8fbd4f" fill-opacity="1"><g transform="translate(269.500858, 346.229858)"><g><path d="M -9.261719 -17.105469 L -6.988281 -18.503906 L -3.890625 -13.457031 C -3.730469 -14.054688 -3.558594 -14.53125 -3.230469 -15.011719 C -3.097656 -15.246094 -2.898438 -15.429688 -2.699219 -15.554688 C -2.066406 -15.941406 -1.417969 -15.84375 -0.847656 -15.574219 C -0.289062 -15.265625 0.222656 -14.742188 0.539062 -14.222656 L 5.363281 -6.363281 C 5.683594 -5.847656 5.921875 -5.15625 5.925781 -4.539062 C 5.925781 -3.886719 5.71875 -3.261719 5.085938 -2.875 C 4.660156 -2.613281 4.058594 -2.585938 3.566406 -2.625 C 3.269531 -2.65625 2.992188 -2.703125 2.675781 -2.761719 L 3.175781 -1.949219 L 0.902344 -0.554688 Z M 1.515625 -4.652344 C 1.777344 -4.222656 2.308594 -4.117188 2.648438 -4.324219 C 2.984375 -4.53125 3.0625 -5.011719 2.800781 -5.441406 L -1.445312 -12.355469 C -1.707031 -12.78125 -2.171875 -12.929688 -2.511719 -12.722656 C -2.847656 -12.515625 -2.949219 -11.925781 -2.730469 -11.566406 Z M 1.515625 -4.652344 "/></g></g></g><g fill="#8fbd4f" fill-opacity="1"><g transform="translate(282.309935, 338.00728)"><g><path d="M 3.082031 -8.789062 L 4.082031 -7.460938 C 4.859375 -6.292969 5.109375 -5.253906 4.808594 -4.070312 C 4.664062 -3.46875 4.25 -2.925781 3.550781 -2.402344 C 2.175781 -1.371094 0.910156 -1.605469 0 -2.113281 C -0.523438 -2.414062 -1.03125 -2.828125 -1.480469 -3.382812 L -5.84375 -9.195312 C -6.621094 -10.363281 -6.882812 -11.457031 -6.597656 -12.660156 C -6.476562 -13.246094 -6.058594 -13.792969 -5.359375 -14.316406 C -3.984375 -15.347656 -2.71875 -15.109375 -1.824219 -14.625 C -1.300781 -14.324219 -0.808594 -13.933594 -0.375 -13.398438 L 2.148438 -10.039062 L -1.382812 -7.386719 L 0.503906 -4.875 C 0.859375 -4.445312 1.222656 -4.222656 1.589844 -4.132812 C 1.773438 -4.109375 1.96875 -4.15625 2.160156 -4.296875 C 2.5625 -4.597656 2.5625 -4.996094 2.40625 -5.375 C 2.34375 -5.59375 2.222656 -5.800781 2.046875 -6.03125 L 1.097656 -7.300781 Z M -2.636719 -9.058594 L -1.09375 -10.214844 L -2.316406 -11.84375 C -2.648438 -12.289062 -2.96875 -12.539062 -3.371094 -12.636719 C -3.558594 -12.664062 -3.773438 -12.597656 -3.964844 -12.457031 C -4.367188 -12.15625 -4.328125 -11.753906 -4.195312 -11.355469 C -4.132812 -11.140625 -4.011719 -10.933594 -3.859375 -10.683594 Z M -2.636719 -9.058594 "/></g></g></g><g fill="#8fbd4f" fill-opacity="1"><g transform="translate(293.895717, 328.898433)"><g/></g></g><g fill="#8fbd4f" fill-opacity="1"><g transform="translate(301.469352, 322.002821)"><g><path d="M -9.828125 -15.703125 L -7.289062 -13.199219 L -6.007812 -14.496094 L -4.292969 -12.808594 L -5.574219 -11.507812 L -0.457031 -6.460938 C -0.136719 -6.148438 0.277344 -5.738281 0.691406 -5.480469 C 1.101562 -5.222656 1.535156 -5.09375 1.832031 -5.394531 C 1.980469 -5.546875 2.144531 -5.753906 2.257812 -5.902344 C 2.3125 -5.996094 2.386719 -6.070312 2.441406 -6.164062 L 4.304688 -4.328125 C 4.230469 -4.214844 4.175781 -4.085938 4.101562 -3.972656 C 3.953125 -3.746094 3.730469 -3.484375 3.433594 -3.183594 C 2.339844 -2.070312 1.257812 -2.101562 0.28125 -2.542969 C -0.695312 -2.984375 -1.578125 -3.820312 -2.179688 -4.414062 L -7.449219 -9.609375 L -8.394531 -8.648438 L -10.109375 -10.335938 L -9.160156 -11.296875 L -11.703125 -13.800781 Z M -9.828125 -15.703125 "/></g></g></g><g fill="#8fbd4f" fill-opacity="1"><g transform="translate(310.221512, 312.777681)"><g><path d="M -4.839844 -12.429688 C -5.054688 -12.300781 -5.246094 -12.113281 -5.398438 -11.933594 C -5.671875 -11.609375 -5.953125 -11.191406 -5.921875 -10.613281 C -5.921875 -9.957031 -5.628906 -9.605469 -5.285156 -9.316406 L 2.398438 -2.851562 L 0.679688 -0.808594 L -10.378906 -10.117188 L -8.660156 -12.15625 L -7.429688 -11.121094 C -7.554688 -11.257812 -7.777344 -11.691406 -7.828125 -12.285156 C -7.859375 -12.863281 -7.734375 -13.589844 -7.105469 -14.335938 Z M -4.839844 -12.429688 "/></g></g></g><g fill="#8fbd4f" fill-opacity="1"><g transform="translate(318.290025, 302.837323)"><g><path d="M 0.226562 -9.3125 L 1.585938 -8.355469 C 2.6875 -7.480469 3.242188 -6.574219 3.320312 -5.355469 C 3.371094 -4.738281 3.140625 -4.089844 2.640625 -3.378906 C 1.648438 -1.972656 0.371094 -1.808594 -0.652344 -2.011719 C -1.242188 -2.136719 -1.851562 -2.371094 -2.449219 -2.761719 L -8.390625 -6.949219 C -9.488281 -7.820312 -10.074219 -8.78125 -10.171875 -10.015625 C -10.238281 -10.609375 -10.007812 -11.257812 -9.507812 -11.96875 C -8.519531 -13.375 -7.238281 -13.539062 -6.238281 -13.351562 C -5.648438 -13.226562 -5.058594 -13.007812 -4.480469 -12.632812 L -1.046875 -10.210938 L -3.589844 -6.605469 L -1.019531 -4.792969 C -0.550781 -4.492188 -0.136719 -4.394531 0.238281 -4.421875 C 0.421875 -4.453125 0.59375 -4.558594 0.730469 -4.753906 C 1.019531 -5.164062 0.898438 -5.542969 0.636719 -5.855469 C 0.507812 -6.042969 0.328125 -6.203125 0.09375 -6.367188 L -1.203125 -7.28125 Z M -5.296875 -7.804688 L -4.183594 -9.382812 L -5.847656 -10.554688 C -6.300781 -10.875 -6.6875 -11.015625 -7.097656 -10.984375 C -7.28125 -10.953125 -7.46875 -10.824219 -7.605469 -10.628906 C -7.894531 -10.21875 -7.738281 -9.847656 -7.488281 -9.511719 C -7.363281 -9.328125 -7.183594 -9.167969 -6.960938 -8.980469 Z M -5.296875 -7.804688 "/></g></g></g><g fill="#8fbd4f" fill-opacity="1"><g transform="translate(326.615232, 290.518122)"><g><path d="M -7.011719 -9.914062 C -7.21875 -10.03125 -7.539062 -10.214844 -7.808594 -10.28125 C -8.089844 -10.320312 -8.355469 -10.230469 -8.527344 -9.929688 C -8.75 -9.542969 -8.542969 -9.210938 -8.21875 -8.929688 C -8.046875 -8.800781 -7.855469 -8.660156 -7.648438 -8.542969 C -7.441406 -8.421875 -7.234375 -8.304688 -7.050781 -8.199219 L -8.382812 -5.886719 L -8.910156 -6.1875 C -9.828125 -6.714844 -10.453125 -7.53125 -10.757812 -8.4375 C -11.058594 -9.34375 -10.976562 -10.332031 -10.464844 -11.226562 C -10.027344 -11.984375 -9.335938 -12.5 -8.527344 -12.738281 C -7.722656 -12.972656 -6.828125 -12.886719 -6.003906 -12.414062 L 1.695312 -7.988281 C 2.816406 -7.339844 3.363281 -7.121094 3.964844 -6.894531 L 2.660156 -4.628906 C 2.289062 -4.566406 1.695312 -4.910156 1.535156 -5 L 1.441406 -4.839844 C 1.582031 -4.609375 1.761719 -4.230469 1.828125 -3.765625 C 1.894531 -3.300781 1.828125 -2.757812 1.566406 -2.300781 C 1.394531 -2.003906 1.003906 -1.585938 0.335938 -1.484375 C -0.324219 -1.34375 -1.289062 -1.472656 -2.59375 -2.222656 C -3.992188 -3.027344 -4.761719 -4.019531 -5.132812 -4.960938 C -5.503906 -5.90625 -5.546875 -6.84375 -5.511719 -7.589844 C -5.480469 -8.332031 -5.4375 -8.886719 -5.636719 -9.125 Z M -3.507812 -7.898438 C -3.671875 -6.5 -2.824219 -5.375 -1.632812 -4.6875 C -1.472656 -4.597656 -1.183594 -4.460938 -0.878906 -4.40625 C -0.550781 -4.339844 -0.253906 -4.382812 -0.0976562 -4.65625 C 0.207031 -5.183594 0.136719 -5.804688 -0.300781 -6.054688 Z M -3.507812 -7.898438 "/></g></g></g><g fill="#8fbd4f" fill-opacity="1"><g transform="translate(333.734067, 277.50206)"><g><path d="M -14.527344 -11.496094 L -11.292969 -9.988281 L -10.523438 -11.640625 L -8.34375 -10.625 L -9.113281 -8.972656 L -2.597656 -5.933594 C -2.191406 -5.746094 -1.664062 -5.5 -1.1875 -5.394531 C -0.714844 -5.289062 -0.265625 -5.3125 -0.0859375 -5.695312 C 0.00390625 -5.886719 0.0898438 -6.136719 0.144531 -6.316406 C 0.167969 -6.425781 0.210938 -6.519531 0.230469 -6.628906 L 2.601562 -5.523438 C 2.570312 -5.390625 2.5625 -5.25 2.53125 -5.117188 C 2.46875 -4.855469 2.347656 -4.535156 2.167969 -4.148438 C 1.507812 -2.738281 0.476562 -2.402344 -0.589844 -2.492188 C -1.65625 -2.578125 -2.769531 -3.070312 -3.535156 -3.425781 L -10.242188 -6.550781 L -10.8125 -5.332031 L -12.992188 -6.347656 L -12.421875 -7.566406 L -15.65625 -9.074219 Z M -14.527344 -11.496094 "/></g></g></g><g fill="#8fbd4f" fill-opacity="1"><g transform="translate(338.92656, 265.829712)"><g><path d="M -2.203125 -9.050781 L -0.640625 -8.480469 C 0.648438 -7.921875 1.421875 -7.191406 1.8125 -6.035156 C 2.023438 -5.449219 1.96875 -4.765625 1.667969 -3.949219 C 1.078125 -2.335938 -0.113281 -1.84375 -1.152344 -1.773438 C -1.753906 -1.738281 -2.40625 -1.808594 -3.085938 -2.027344 L -9.910156 -4.527344 C -11.199219 -5.082031 -12.011719 -5.855469 -12.429688 -7.023438 C -12.648438 -7.582031 -12.59375 -8.265625 -12.292969 -9.082031 C -11.703125 -10.695312 -10.511719 -11.1875 -9.496094 -11.269531 C -8.894531 -11.300781 -8.269531 -11.242188 -7.613281 -11.03125 L -3.667969 -9.585938 L -5.183594 -5.441406 L -2.230469 -4.363281 C -1.699219 -4.195312 -1.273438 -4.207031 -0.917969 -4.332031 C -0.75 -4.410156 -0.613281 -4.558594 -0.53125 -4.78125 C -0.359375 -5.253906 -0.574219 -5.585938 -0.910156 -5.820312 C -1.082031 -5.96875 -1.296875 -6.074219 -1.570312 -6.171875 L -3.058594 -6.71875 Z M -7.144531 -6.160156 L -6.484375 -7.972656 L -8.394531 -8.671875 C -8.914062 -8.859375 -9.324219 -8.898438 -9.710938 -8.757812 C -9.882812 -8.679688 -10.027344 -8.507812 -10.109375 -8.285156 C -10.28125 -7.8125 -10.03125 -7.496094 -9.707031 -7.238281 C -9.535156 -7.089844 -9.320312 -6.984375 -9.054688 -6.859375 Z M -7.144531 -6.160156 "/></g></g></g><g fill="#8fbd4f" fill-opacity="1"><g transform="translate(343.765822, 251.760763)"><g><path d="M 1.984375 -7.539062 L 1.304688 -4.957031 L 0.386719 -5.199219 C 0.679688 -4.65625 0.886719 -4.195312 0.988281 -3.648438 C 1.046875 -3.359375 1.03125 -3.089844 0.972656 -2.859375 C 0.78125 -2.144531 0.246094 -1.765625 -0.371094 -1.601562 C -0.96875 -1.402344 -1.699219 -1.429688 -2.289062 -1.585938 L -11.207031 -3.933594 C -11.792969 -4.089844 -12.445312 -4.421875 -12.894531 -4.898438 C -13.324219 -5.339844 -13.605469 -5.933594 -13.417969 -6.648438 C -13.289062 -7.132812 -12.875 -7.570312 -12.492188 -7.878906 C -12.25 -8.0625 -12.019531 -8.21875 -11.753906 -8.394531 L -17.480469 -9.902344 L -16.800781 -12.484375 Z M -9.605469 -7.832031 C -10.015625 -7.9375 -10.550781 -7.667969 -10.652344 -7.285156 C -10.753906 -6.902344 -10.476562 -6.5 -9.992188 -6.375 L -2.144531 -4.308594 C -1.660156 -4.179688 -1.222656 -4.394531 -1.121094 -4.777344 C -1.019531 -5.160156 -1.277344 -5.636719 -1.761719 -5.765625 Z M -9.605469 -7.832031 "/></g></g></g></svg>